<svg width="74" height="70" viewBox="0 0 74 70" fill="none" xmlns="http://www.w3.org/2000/svg">
<rect x="1.10498" y="0.25" width="72.4931" height="69.5" rx="9.75" fill="white" stroke="#FF6154" strokeWidth="0.5"/>
<path d="M53.4745 24.6154C53.4745 28.8209 46.3632 32.2308 37.5925 32.2308C28.8217 32.2308 21.7104 28.8209 21.7104 24.6154M53.4745 24.6154C53.4745 20.4098 46.3632 17 37.5925 17C28.8217 17 21.7104 20.4098 21.7104 24.6154M53.4745 24.6154V45.3846C53.4745 49.5902 46.3632 53 37.5925 53C28.8217 53 21.7104 49.5902 21.7104 45.3846V24.6154M53.4745 24.6154V31.5385M21.7104 24.6154V31.5385M53.4745 31.5385V38.4615C53.4745 42.6671 46.3632 46.0769 37.5925 46.0769C28.8217 46.0769 21.7104 42.6671 21.7104 38.4615V31.5385M53.4745 31.5385C53.4745 35.744 46.3632 39.1538 37.5925 39.1538C28.8217 39.1538 21.7104 35.744 21.7104 31.5385" stroke="#FF6154" strokeWidth="1.5" stroke-linecap="round" stroke-linejoin="round"/>
</svg>
