<svg width="22" height="22" viewBox="0 0 22 22" fill="none" xmlns="http://www.w3.org/2000/svg">
<path d="M11 4.33333V17.6667M7.66667 14.5356L8.64333 15.2678C9.94444 16.2444 12.0544 16.2444 13.3567 15.2678C14.6589 14.2911 14.6589 12.7089 13.3567 11.7322C12.7067 11.2433 11.8533 11 11 11C10.1944 11 9.38889 10.7556 8.77444 10.2678C7.54556 9.29111 7.54556 7.70889 8.77444 6.73222C10.0033 5.75556 11.9967 5.75556 13.2256 6.73222L13.6867 7.09889M21 11C21 12.3132 20.7413 13.6136 20.2388 14.8268C19.7363 16.0401 18.9997 17.1425 18.0711 18.0711C17.1425 18.9997 16.0401 19.7363 14.8268 20.2388C13.6136 20.7413 12.3132 21 11 21C9.68678 21 8.38642 20.7413 7.17317 20.2388C5.95991 19.7363 4.85752 18.9997 3.92893 18.0711C3.00035 17.1425 2.26375 16.0401 1.7612 14.8268C1.25866 13.6136 1 12.3132 1 11C1 8.34784 2.05357 5.8043 3.92893 3.92893C5.8043 2.05357 8.34784 1 11 1C13.6522 1 16.1957 2.05357 18.0711 3.92893C19.9464 5.8043 21 8.34784 21 11Z" stroke="#333333" strokeWidth="1.5" strokeLinecap="round" strokeLinejoin="round"/>
</svg>
