<svg width="42" height="42" viewBox="0 0 42 42" fill="none" xmlns="http://www.w3.org/2000/svg">
<rect width="41.9997" height="41.9997" rx="6" fill="#67DF87"/>
<path d="M27.6285 8.19243C26.3796 8.06027 25.1242 7.99603 23.8683 8.00019C19.7043 8.00019 17.1169 10.6516 17.1169 14.9209V17.819H13.619C13.2773 17.8188 13.0002 18.0957 13 18.4374V23.2054C12.9998 23.5471 13.2767 23.8243 13.6184 23.8245H17.1169V33.381C17.1167 33.7227 17.3935 33.9998 17.7352 34H22.6605C23.0022 34.0002 23.2793 33.7234 23.2795 33.3816V23.8245H26.7665C27.0776 23.8244 27.3404 23.5937 27.3807 23.2852L27.9962 18.5179C28.0404 18.179 27.8015 17.8685 27.4626 17.8242C27.4358 17.8208 27.4089 17.819 27.3819 17.819H23.2795V15.3936C23.2795 14.193 23.5213 13.6913 25.023 13.6913L27.5475 13.6901C27.8892 13.6902 28.1663 13.4134 28.1666 13.0717V8.80664C28.1666 8.49591 27.9365 8.23324 27.6285 8.19243ZM26.9285 12.452L25.023 12.4532C22.3509 12.4532 22.0414 14.1314 22.0414 15.3936V18.4382C22.0413 18.7798 22.3181 19.057 22.6598 19.0571H26.6782L26.2224 22.5864H22.6605C22.3187 22.5862 22.0416 22.863 22.0414 23.2048V32.7619H18.355V23.2054C18.3552 22.8637 18.0783 22.5866 17.7367 22.5864H14.2381V19.0571H17.7359C18.0776 19.0573 18.3547 18.7805 18.355 18.4388V14.9209C18.355 11.3626 20.4164 9.23828 23.8683 9.23828C25.1173 9.23828 26.2453 9.30598 26.9285 9.36523V12.452Z" fill="#333333"/>
</svg>
