<svg width="42" height="42" viewBox="0 0 42 42" fill="none" xmlns="http://www.w3.org/2000/svg">
<rect x="-0.000976562" width="42" height="42" rx="6" fill="#67DF87"/>
<path d="M14.3947 32.8695H9.92079C9.60123 32.8695 9.38818 32.6564 9.38818 32.3369V17.85C9.38818 17.5304 9.60123 17.3174 9.92079 17.3174H14.5012C14.8208 17.3174 15.0338 17.5304 15.0338 17.85V32.3369C14.9273 32.6564 14.7142 32.8695 14.3947 32.8695ZM10.4534 31.8043H13.9686V18.3826H10.4534V31.8043Z" fill="#333333"/>
<path d="M14.3947 32.8695H9.92079C9.60123 32.8695 9.38818 32.6564 9.38818 32.3369V17.85C9.38818 17.5304 9.60123 17.3174 9.92079 17.3174H14.5012C14.8208 17.3174 15.0338 17.5304 15.0338 17.85V32.3369C14.9273 32.6564 14.7142 32.8695 14.3947 32.8695ZM10.4534 31.8043H13.9686V18.3826H10.4534V31.8043Z" fill="#333333"/>
<path d="M14.3947 32.8706H9.92079C9.60123 32.8706 9.38818 32.6576 9.38818 32.338V17.8511C9.38818 17.5316 9.60123 17.3185 9.92079 17.3185H14.5012C14.8208 17.3185 15.0338 17.5316 15.0338 17.8511V32.338C14.9273 32.6576 14.7142 32.8706 14.3947 32.8706ZM10.4534 31.8054H13.9686V18.3837H10.4534V31.8054ZM32.7163 32.8706H27.4968C27.1772 32.8706 26.9642 32.6576 26.9642 32.338V26.1598C26.9642 24.8815 26.6446 23.3902 24.9403 23.3902C23.7686 23.3902 23.236 24.1359 22.9164 24.8815C22.8099 25.0946 22.8099 25.4141 22.8099 25.7337V32.4445C22.8099 32.7641 22.5968 32.9771 22.2773 32.9771H17.2708C17.1642 32.9771 16.9512 32.8706 16.8447 32.8706C16.7382 32.8706 16.7382 32.4445 16.7382 32.338V17.8511C16.7382 17.7446 16.7382 17.5316 16.8447 17.425C16.9512 17.425 17.0577 17.3185 17.2708 17.3185H22.3838C22.7033 17.3185 22.9164 17.5316 22.9164 17.8511V18.4902C23.7686 17.7446 25.1533 17.1055 26.9642 17.1055C30.9055 17.1055 33.249 19.875 33.249 24.2424V32.338C33.249 32.6576 33.0359 32.8706 32.7163 32.8706ZM28.0294 31.8054H32.1837V24.2424C32.1837 20.5142 30.2664 18.1707 26.9642 18.1707C24.5142 18.1707 23.1294 19.4489 22.9164 20.1946C22.8099 20.4076 22.5968 20.6207 22.2773 20.5142C22.0642 20.5142 21.8512 20.3011 21.8512 19.9815V18.3837H17.8034V31.8054H21.8512V25.6272C21.8512 25.2011 21.8512 24.775 21.9577 24.3489C22.4903 22.9641 23.5555 22.2185 24.9403 22.2185C26.8577 22.2185 28.0294 23.6033 28.0294 26.0533V31.8054Z" fill="#333333"/>
<path d="M32.7163 32.8695H27.4968C27.1772 32.8695 26.9642 32.6564 26.9642 32.3369V26.1586C26.9642 24.8804 26.6446 23.3891 24.9403 23.3891C23.7685 23.3891 23.2359 24.1347 22.9164 24.8804C22.8098 25.0934 22.8098 25.413 22.8098 25.7325V32.4434C22.8098 32.7629 22.5968 32.976 22.2772 32.976H17.2707C17.1642 32.976 16.9512 32.8695 16.8446 32.8695C16.7381 32.8695 16.7381 32.4434 16.7381 32.3369V17.85C16.7381 17.7434 16.7381 17.5304 16.8446 17.4239C16.9512 17.4239 17.0577 17.3174 17.2707 17.3174H22.3837C22.7033 17.3174 22.9164 17.5304 22.9164 17.85V18.4891C23.7685 17.7434 25.1533 17.1043 26.9642 17.1043C30.9055 17.1043 33.2489 19.8739 33.2489 24.2412V32.3369C33.2489 32.6564 33.0359 32.8695 32.7163 32.8695ZM28.0294 31.8043H32.1837V24.2412C32.1837 20.513 30.2663 18.1695 26.9642 18.1695C24.5142 18.1695 23.1294 19.4478 22.9164 20.1934C22.8098 20.4065 22.5968 20.6195 22.2772 20.513C22.0642 20.513 21.8511 20.3 21.8511 19.9804V18.3826H17.8033V31.8043H21.8511V25.626C21.8511 25.1999 21.8511 24.7739 21.9577 24.3478C22.4903 22.963 23.5555 22.2173 24.9403 22.2173C26.8576 22.2173 28.0294 23.6021 28.0294 26.0521V31.8043ZM12.0512 16.5717C10.1338 16.5717 8.74902 15.2935 8.74902 13.5891C8.74902 11.7783 10.1338 10.5 12.0512 10.5C13.9686 10.5 15.2468 11.7783 15.3533 13.4826C15.3533 15.2935 13.9686 16.5717 12.0512 16.5717ZM12.0512 11.5652C10.6664 11.5652 9.81424 12.3109 9.81424 13.5891C9.81424 14.7609 10.6664 15.613 12.0512 15.613C13.436 15.613 14.2881 14.8674 14.2881 13.5891C14.2881 12.3109 13.436 11.5652 12.0512 11.5652Z" fill="#333333"/>
</svg>
