<svg width="74" height="70" viewBox="0 0 74 70" fill="none" xmlns="http://www.w3.org/2000/svg">
<rect x="0.580566" y="0.25" width="72.4931" height="69.5" rx="9.75" fill="white" stroke="#FFB703" strokeWidth="0.5"/>
<path d="M31.6936 22.2522H28.1207C27.2975 22.2523 26.496 22.5099 25.8339 22.987C25.1717 23.4642 24.6838 24.1358 24.4416 24.9034L20.3142 37.9912C20.2011 38.3487 20.1435 38.7206 20.1431 39.0947V46.0435C20.1431 47.0398 20.5487 47.9953 21.2708 48.6997C21.9928 49.4042 22.9721 49.8 23.9933 49.8H49.6612C50.6823 49.8 51.6616 49.4042 52.3836 48.6997C53.1057 47.9953 53.5113 47.0398 53.5113 46.0435V39.0947C53.5113 38.7208 53.4532 38.3485 53.3402 37.9912L49.2162 24.9034C48.974 24.1358 48.4861 23.4642 47.8239 22.987C47.1618 22.5099 46.3603 22.2523 45.5372 22.2522H41.9608M20.1431 38.5304H26.7483C27.4632 38.5306 28.164 38.725 28.7721 39.0918C29.3801 39.4587 29.8715 39.9834 30.1912 40.6074L30.6293 41.4622C30.949 42.0864 31.4407 42.6113 32.0491 42.9782C32.6575 43.345 33.3587 43.5393 34.0739 43.5391H39.5805C40.2957 43.5393 40.9969 43.345 41.6053 42.9782C42.2137 42.6113 42.7054 42.0864 43.0251 41.4622L43.4632 40.6074C43.783 39.9832 44.2747 39.4582 44.8831 39.0914C45.4915 38.7245 46.1926 38.5303 46.9078 38.5304H53.5113M36.8272 21V34.7739M36.8272 34.7739L31.6936 29.7652M36.8272 34.7739L41.9608 29.7652" stroke="#FFB703" strokeWidth="1.5" strokeLinecap="round" strokeLinejoin="round"/>
</svg>
