<svg width="42" height="42" viewBox="0 0 42 42" fill="none" xmlns="http://www.w3.org/2000/svg">
<rect x="-0.000488281" width="41.9997" height="41.9997" rx="6" fill="#67DF87"/>
<path d="M33.2493 15.0769V28.2691C33.2493 29.0189 32.9515 29.7379 32.4214 30.268C31.8912 30.7982 31.1722 31.096 30.4224 31.096H11.5764C10.8267 31.096 10.1076 30.7982 9.57749 30.268C9.04735 29.7379 8.74951 29.0189 8.74951 28.2691V15.0769M33.2493 15.0769C33.2493 14.3272 32.9515 13.6081 32.4214 13.078C31.8912 12.5478 31.1722 12.25 30.4224 12.25H11.5764C10.8267 12.25 10.1076 12.5478 9.57749 13.078C9.04735 13.6081 8.74951 14.3272 8.74951 15.0769M33.2493 15.0769V15.3822C33.2494 15.8648 33.1259 16.3395 32.8905 16.7609C32.6552 17.1822 32.3159 17.5364 31.905 17.7895L22.482 23.5878C22.0362 23.8623 21.523 24.0077 20.9994 24.0077C20.4759 24.0077 19.9626 23.8623 19.5169 23.5878L10.0939 17.7907C9.68292 17.5376 9.34363 17.1835 9.1083 16.7621C8.87298 16.3407 8.74946 15.8661 8.74951 15.3835V15.0769" stroke="#333333" stroke-linecap="round" stroke-linejoin="round"/>
</svg>
