<svg width="20" height="26" viewBox="0 0 20 26" fill="none" xmlns="http://www.w3.org/2000/svg">
<path d="M6.4 15.4018L13.6 8.20183M19 4.01023V24.4018L14.5 22.6018L10 24.4018L5.5 22.6018L1 24.4018V4.01023C1 2.68063 1.9672 1.54183 3.2884 1.38823C7.74783 0.870591 12.2522 0.870591 16.7116 1.38823C18.0316 1.54183 19 2.68063 19 4.01023ZM7.3 9.10183H7.3096V9.11143H7.3V9.10183ZM7.75 9.10183C7.75 9.22118 7.70259 9.33564 7.6182 9.42003C7.53381 9.50442 7.41935 9.55183 7.3 9.55183C7.18065 9.55183 7.06619 9.50442 6.9818 9.42003C6.89741 9.33564 6.85 9.22118 6.85 9.10183C6.85 8.98248 6.89741 8.86802 6.9818 8.78363C7.06619 8.69924 7.18065 8.65183 7.3 8.65183C7.41935 8.65183 7.53381 8.69924 7.6182 8.78363C7.70259 8.86802 7.75 8.98248 7.75 9.10183V9.10183ZM12.7 14.5018H12.7096V14.5114H12.7V14.5018ZM13.15 14.5018C13.15 14.6212 13.1026 14.7356 13.0182 14.82C12.9338 14.9044 12.8193 14.9518 12.7 14.9518C12.5807 14.9518 12.4662 14.9044 12.3818 14.82C12.2974 14.7356 12.25 14.6212 12.25 14.5018C12.25 14.3825 12.2974 14.268 12.3818 14.1836C12.4662 14.0992 12.5807 14.0518 12.7 14.0518C12.8193 14.0518 12.9338 14.0992 13.0182 14.1836C13.1026 14.268 13.15 14.3825 13.15 14.5018V14.5018Z" stroke="#333333" strokeWidth="1.5" strokeLinecap="round" strokeLinejoin="round"/>
</svg>
