<svg width="22" height="22" viewBox="0 0 22 22" fill="none" xmlns="http://www.w3.org/2000/svg">
<path d="M1 3.72727C1 3.00396 1.28734 2.31026 1.7988 1.7988C2.31026 1.28734 3.00396 1 3.72727 1H6.45455C7.17786 1 7.87156 1.28734 8.38302 1.7988C8.89448 2.31026 9.18182 3.00396 9.18182 3.72727V6.45455C9.18182 7.17786 8.89448 7.87156 8.38302 8.38302C7.87156 8.89448 7.17786 9.18182 6.45455 9.18182H3.72727C3.00396 9.18182 2.31026 8.89448 1.7988 8.38302C1.28734 7.87156 1 7.17786 1 6.45455V3.72727ZM1 15.5455C1 14.8221 1.28734 14.1284 1.7988 13.617C2.31026 13.1055 3.00396 12.8182 3.72727 12.8182H6.45455C7.17786 12.8182 7.87156 13.1055 8.38302 13.617C8.89448 14.1284 9.18182 14.8221 9.18182 15.5455V18.2727C9.18182 18.996 8.89448 19.6897 8.38302 20.2012C7.87156 20.7127 7.17786 21 6.45455 21H3.72727C3.00396 21 2.31026 20.7127 1.7988 20.2012C1.28734 19.6897 1 18.996 1 18.2727V15.5455ZM12.8182 3.72727C12.8182 3.00396 13.1055 2.31026 13.617 1.7988C14.1284 1.28734 14.8221 1 15.5455 1H18.2727C18.996 1 19.6897 1.28734 20.2012 1.7988C20.7127 2.31026 21 3.00396 21 3.72727V6.45455C21 7.17786 20.7127 7.87156 20.2012 8.38302C19.6897 8.89448 18.996 9.18182 18.2727 9.18182H15.5455C14.8221 9.18182 14.1284 8.89448 13.617 8.38302C13.1055 7.87156 12.8182 7.17786 12.8182 6.45455V3.72727ZM12.8182 15.5455C12.8182 14.8221 13.1055 14.1284 13.617 13.617C14.1284 13.1055 14.8221 12.8182 15.5455 12.8182H18.2727C18.996 12.8182 19.6897 13.1055 20.2012 13.617C20.7127 14.1284 21 14.8221 21 15.5455V18.2727C21 18.996 20.7127 19.6897 20.2012 20.2012C19.6897 20.7127 18.996 21 18.2727 21H15.5455C14.8221 21 14.1284 20.7127 13.617 20.2012C13.1055 19.6897 12.8182 18.996 12.8182 18.2727V15.5455Z" stroke="#01A4EF" strokeWidth="1.5" strokeLinecap="round" strokeLinejoin="round"/>
</svg>
