<svg width="304" height="208" viewBox="0 0 304 208" fill="none" xmlns="http://www.w3.org/2000/svg">
<path d="M151.723 161.912C119.54 161.912 93.3516 135.728 93.3516 103.54C93.3516 71.3567 119.535 45.1685 151.723 45.1685C183.911 45.1685 210.095 71.3522 210.095 103.54C210.095 135.728 183.911 161.912 151.723 161.912ZM151.723 45.6931C119.827 45.6931 93.8762 71.6442 93.8762 103.54C93.8762 135.436 119.827 161.387 151.723 161.387C183.619 161.387 209.57 135.436 209.57 103.54C209.57 71.6442 183.619 45.6931 151.723 45.6931Z" fill="#EBEBEB"/>
<path d="M151.723 155.583C123.026 155.583 99.6797 132.237 99.6797 103.54C99.6797 74.842 123.026 51.4961 151.723 51.4961C180.421 51.4961 203.767 74.842 203.767 103.54C203.767 132.237 180.421 155.583 151.723 155.583ZM151.723 52.0208C123.313 52.0208 100.204 75.134 100.204 103.54C100.204 131.95 123.318 155.058 151.723 155.058C180.133 155.058 203.242 131.945 203.242 103.54C203.242 75.1294 180.133 52.0208 151.723 52.0208Z" fill="#EBEBEB"/>
<path d="M115.981 14.364L115.495 14.5605L119.101 23.4864L119.587 23.2899L115.981 14.364Z" fill="#EBEBEB"/>
<path d="M121.184 27.2507L120.698 27.4473L126.647 42.1728L127.134 41.9763L121.184 27.2507Z" fill="#EBEBEB"/>
<path d="M63.3852 65.7587L63.1802 66.2417L72.0416 70.0029L72.2465 69.5199L63.3852 65.7587Z" fill="#EBEBEB"/>
<path d="M76.1789 71.185L75.9739 71.668L90.5931 77.873L90.798 77.39L76.1789 71.185Z" fill="#EBEBEB"/>
<path d="M71.4745 135.685L62.5486 139.291L62.7451 139.778L71.671 136.171L71.4745 135.685Z" fill="#EBEBEB"/>
<path d="M90.157 128.135L75.4314 134.084L75.6279 134.57L90.3535 128.621L90.157 128.135Z" fill="#EBEBEB"/>
<path d="M117.7 183.007L113.938 191.868L114.421 192.073L118.183 183.212L117.7 183.007Z" fill="#EBEBEB"/>
<path d="M125.575 164.46L119.37 179.079L119.853 179.284L126.058 164.665L125.575 164.46Z" fill="#EBEBEB"/>
<path d="M184.354 183.596L183.868 183.793L187.474 192.719L187.96 192.522L184.354 183.596Z" fill="#EBEBEB"/>
<path d="M176.805 164.92L176.318 165.116L182.267 179.842L182.754 179.645L176.805 164.92Z" fill="#EBEBEB"/>
<path d="M231.393 137.072L231.188 137.555L240.05 141.316L240.255 140.833L231.393 137.072Z" fill="#EBEBEB"/>
<path d="M212.849 129.2L212.644 129.683L227.263 135.888L227.468 135.405L212.849 129.2Z" fill="#EBEBEB"/>
<path d="M240.707 67.3118L231.781 70.918L231.978 71.4044L240.903 67.7983L240.707 67.3118Z" fill="#EBEBEB"/>
<path d="M227.826 72.5155L213.101 78.4648L213.297 78.9513L228.023 73.002L227.826 72.5155Z" fill="#EBEBEB"/>
<path d="M189.014 14.9995L185.252 23.8608L185.735 24.0658L189.497 15.2044L189.014 14.9995Z" fill="#EBEBEB"/>
<path d="M183.59 27.7895L177.385 42.4087L177.868 42.6137L184.073 27.9945L183.59 27.7895Z" fill="#EBEBEB"/>
<path d="M151.988 0H151.463V23.6835H151.988V0Z" fill="#EBEBEB"/>
<path d="M151.988 29.0171H151.463V37.2386H151.988V29.0171Z" fill="#EBEBEB"/>
<path d="M78.6915 30.1421L78.3206 30.5132L95.0695 47.2574L95.4405 46.8864L78.6915 30.1421Z" fill="#EBEBEB"/>
<path d="M99.2201 50.6548L98.8491 51.0259L104.663 56.8393L105.034 56.4682L99.2201 50.6548Z" fill="#EBEBEB"/>
<path d="M71.8671 103.28H48.1836V103.805H71.8671V103.28Z" fill="#EBEBEB"/>
<path d="M85.4222 103.28H77.2007V103.805H85.4222V103.28Z" fill="#EBEBEB"/>
<path d="M95.0705 159.825L78.3215 176.569L78.6925 176.94L95.4415 160.196L95.0705 159.825Z" fill="#EBEBEB"/>
<path d="M104.668 150.239L98.8535 156.053L99.2245 156.424L105.039 150.61L104.668 150.239Z" fill="#EBEBEB"/>
<path d="M151.988 183.4H151.463V207.084H151.988V183.4Z" fill="#EBEBEB"/>
<path d="M151.988 169.836H151.463V178.057H151.988V169.836Z" fill="#EBEBEB"/>
<path d="M208.374 159.819L208.003 160.19L224.752 176.935L225.123 176.564L208.374 159.819Z" fill="#EBEBEB"/>
<path d="M198.804 150.229L198.433 150.6L204.247 156.413L204.618 156.042L198.804 150.229Z" fill="#EBEBEB"/>
<path d="M255.267 103.28H231.584V103.805H255.267V103.28Z" fill="#EBEBEB"/>
<path d="M226.241 103.28H218.02V103.805H226.241V103.28Z" fill="#EBEBEB"/>
<path d="M224.755 30.1439L208.006 46.8882L208.377 47.2592L225.126 30.515L224.755 30.1439Z" fill="#EBEBEB"/>
<path d="M204.244 50.6568L198.429 56.4702L198.8 56.8413L204.615 51.0279L204.244 50.6568Z" fill="#EBEBEB"/>
<path d="M152.919 103.54C152.919 104.202 152.385 104.735 151.723 104.735C151.062 104.735 150.528 104.202 150.528 103.54C150.528 102.879 151.062 102.345 151.723 102.345C152.385 102.345 152.919 102.879 152.919 103.54Z" fill="#EBEBEB"/>
<path d="M263.553 183.182C262.932 182.037 262.927 180.631 263.553 179.486C264.178 180.627 264.173 182.037 263.553 183.182Z" fill="#333333"/>
<path d="M267.025 184.61C267.381 183.365 268.357 182.366 269.598 181.996C269.247 183.246 268.266 184.236 267.025 184.61Z" fill="#333333"/>
<path d="M268.485 188.118C269.612 187.498 270.999 187.493 272.125 188.118C270.999 188.743 269.612 188.739 268.485 188.118Z" fill="#333333"/>
<path d="M267.079 191.646C268.32 192.02 269.301 193.014 269.653 194.26C268.412 193.89 267.431 192.891 267.079 191.646Z" fill="#333333"/>
<path d="M263.626 193.128C264.246 194.273 264.251 195.678 263.626 196.823C263 195.678 263.005 194.273 263.626 193.128Z" fill="#333333"/>
<path d="M260.154 191.695C259.798 192.941 258.821 193.94 257.58 194.31C257.927 193.064 258.913 192.069 260.154 191.695Z" fill="#333333"/>
<path d="M258.694 188.191C257.567 188.811 256.18 188.816 255.053 188.191C256.175 187.566 257.567 187.57 258.694 188.191Z" fill="#333333"/>
<path d="M260.099 184.665C258.858 184.291 257.877 183.296 257.526 182.051C258.767 182.42 259.748 183.42 260.099 184.665Z" fill="#333333"/>
<path d="M137.42 17.7302C136.799 16.5851 136.795 15.1798 137.42 14.0347C138.045 15.1798 138.04 16.5851 137.42 17.7302Z" fill="#333333"/>
<path d="M140.892 19.1626C141.248 17.9171 142.224 16.9179 143.465 16.5483C143.114 17.7939 142.128 18.7885 140.892 19.1626Z" fill="#333333"/>
<path d="M142.352 22.6663C143.479 22.0458 144.866 22.0412 145.993 22.6663C144.866 23.2913 143.479 23.2868 142.352 22.6663Z" fill="#333333"/>
<path d="M140.942 26.1934C142.183 26.5675 143.164 27.5621 143.515 28.8076C142.274 28.4381 141.298 27.4389 140.942 26.1934Z" fill="#333333"/>
<path d="M137.493 27.6758C138.113 28.8209 138.118 30.2262 137.493 31.3713C136.868 30.2307 136.872 28.8209 137.493 27.6758Z" fill="#333333"/>
<path d="M134.021 26.2485C133.665 27.4941 132.689 28.4932 131.448 28.8628C131.794 27.6173 132.78 26.6227 134.021 26.2485Z" fill="#333333"/>
<path d="M132.561 22.7444C131.434 23.3649 130.047 23.3695 128.92 22.7444C130.043 22.1194 131.434 22.1239 132.561 22.7444Z" fill="#333333"/>
<path d="M133.966 19.2124C132.725 18.8383 131.744 17.8437 131.393 16.5981C132.634 16.9723 133.61 17.9714 133.966 19.2124Z" fill="#333333"/>
<path d="M8.49979 156.939C7.87931 155.794 7.87474 154.388 8.49979 153.243C9.12485 154.384 9.12028 155.794 8.49979 156.939Z" fill="#333333"/>
<path d="M11.9719 158.367C12.3278 157.122 13.3041 156.122 14.5451 155.753C14.1938 157.003 13.2129 157.993 11.9719 158.367Z" fill="#333333"/>
<path d="M13.4319 161.875C14.5588 161.255 15.9458 161.25 17.0727 161.875C15.9458 162.496 14.5588 162.491 13.4319 161.875Z" fill="#333333"/>
<path d="M12.0266 165.402C13.2676 165.776 14.2485 166.771 14.5998 168.017C13.3588 167.647 12.3779 166.643 12.0266 165.402Z" fill="#333333"/>
<path d="M8.57279 166.885C9.19328 168.03 9.19784 169.435 8.57279 170.58C7.94774 169.435 7.9523 168.03 8.57279 166.885Z" fill="#333333"/>
<path d="M5.10079 165.452C4.74492 166.698 3.76857 167.697 2.52759 168.066C2.87889 166.821 3.85981 165.826 5.10079 165.452Z" fill="#333333"/>
<path d="M3.64081 161.948C2.51389 162.568 1.12692 162.573 0 161.948C1.12235 161.322 2.51389 161.327 3.64081 161.948Z" fill="#333333"/>
<path d="M5.0461 158.422C3.80513 158.048 2.82421 157.053 2.4729 155.808C3.71388 156.177 4.6948 157.176 5.0461 158.422Z" fill="#333333"/>
<path d="M31.5901 5.31626C30.9788 4.75508 30.9788 3.83803 31.5901 3.27686C32.206 3.83803 32.2015 4.75508 31.5901 5.31626Z" fill="#333333"/>
<path d="M33.5063 6.10529C33.4652 5.2795 34.0994 4.62707 34.9252 4.66357C34.9754 5.48937 34.3321 6.13267 33.5063 6.10529Z" fill="#333333"/>
<path d="M34.314 8.04031C34.866 7.43351 35.7739 7.42895 36.3214 8.04031C35.7739 8.65167 34.866 8.64711 34.314 8.04031Z" fill="#333333"/>
<path d="M33.5382 9.98844C34.364 9.9565 35.0073 10.6044 34.9571 11.4302C34.1313 11.4621 33.4926 10.8097 33.5382 9.98844Z" fill="#333333"/>
<path d="M31.6311 10.8047C32.2425 11.3659 32.2425 12.2829 31.6311 12.8441C31.0198 12.2829 31.0243 11.3659 31.6311 10.8047Z" fill="#333333"/>
<path d="M29.7149 10.0155C29.7559 10.8413 29.1218 11.4937 28.296 11.4572C28.2458 10.6314 28.8891 9.98812 29.7149 10.0155Z" fill="#333333"/>
<path d="M28.9074 8.08133C28.3553 8.68813 27.4474 8.69269 26.8999 8.08133C27.4474 7.46996 28.3553 7.47452 28.9074 8.08133Z" fill="#333333"/>
<path d="M29.6875 6.13279C28.8617 6.16473 28.2184 5.51686 28.2686 4.69107C29.0899 4.65913 29.7286 5.31155 29.6875 6.13279Z" fill="#333333"/>
<path d="M299.213 120.982C298.601 120.421 298.601 119.504 299.213 118.942C299.824 119.499 299.819 120.416 299.213 120.982Z" fill="#333333"/>
<path d="M301.129 121.771C301.088 120.946 301.722 120.293 302.548 120.33C302.598 121.151 301.955 121.799 301.129 121.771Z" fill="#333333"/>
<path d="M301.936 123.706C302.488 123.099 303.396 123.094 303.944 123.706C303.392 124.317 302.488 124.313 301.936 123.706Z" fill="#333333"/>
<path d="M301.156 125.654C301.982 125.623 302.625 126.27 302.575 127.096C301.754 127.128 301.115 126.476 301.156 125.654Z" fill="#333333"/>
<path d="M299.254 126.47C299.865 127.031 299.865 127.948 299.254 128.509C298.638 127.948 298.642 127.031 299.254 126.47Z" fill="#333333"/>
<path d="M297.337 125.681C297.378 126.507 296.744 127.159 295.919 127.123C295.868 126.297 296.512 125.649 297.337 125.681Z" fill="#333333"/>
<path d="M296.53 123.747C295.978 124.353 295.07 124.358 294.522 123.747C295.07 123.135 295.978 123.135 296.53 123.747Z" fill="#333333"/>
<path d="M297.305 121.799C296.48 121.831 295.836 121.183 295.887 120.357C296.712 120.32 297.351 120.973 297.305 121.799Z" fill="#333333"/>
<path d="M171.647 184.039C171.036 183.478 171.036 182.561 171.647 182C172.259 182.557 172.254 183.474 171.647 184.039Z" fill="#333333"/>
<path d="M173.563 184.829C173.522 184.003 174.157 183.351 174.982 183.387C175.028 184.208 174.389 184.856 173.563 184.829Z" fill="#333333"/>
<path d="M174.366 186.763C174.918 186.157 175.826 186.152 176.374 186.763C175.826 187.375 174.918 187.37 174.366 186.763Z" fill="#333333"/>
<path d="M173.591 188.712C174.416 188.68 175.06 189.328 175.009 190.154C174.184 190.186 173.549 189.533 173.591 188.712Z" fill="#333333"/>
<path d="M171.688 189.527C172.3 190.089 172.3 191.006 171.688 191.567C171.072 191.006 171.077 190.089 171.688 189.527Z" fill="#333333"/>
<path d="M169.767 188.738C169.808 189.564 169.174 190.217 168.348 190.18C168.303 189.354 168.942 188.706 169.767 188.738Z" fill="#333333"/>
<path d="M168.964 186.804C168.412 187.411 167.505 187.416 166.957 186.804C167.505 186.193 168.412 186.193 168.964 186.804Z" fill="#333333"/>
<path d="M169.74 184.856C168.914 184.888 168.271 184.24 168.321 183.415C169.147 183.378 169.781 184.03 169.74 184.856Z" fill="#333333"/>
<path d="M264.652 21.326C264.041 20.7648 264.041 19.8478 264.652 19.2866C265.263 19.8432 265.263 20.7603 264.652 21.326Z" fill="#333333"/>
<path d="M266.568 22.1155C266.527 21.2897 267.161 20.6373 267.987 20.6738C268.037 21.4951 267.394 22.1429 266.568 22.1155Z" fill="#333333"/>
<path d="M267.376 24.0501C267.928 23.4433 268.836 23.4387 269.383 24.0501C268.836 24.6614 267.928 24.6569 267.376 24.0501Z" fill="#333333"/>
<path d="M266.6 25.9982C267.426 25.9663 268.069 26.6141 268.019 27.4399C267.193 27.4719 266.555 26.8194 266.6 25.9982Z" fill="#333333"/>
<path d="M264.693 26.8149C265.305 27.3761 265.305 28.2932 264.693 28.8543C264.082 28.2932 264.082 27.3761 264.693 26.8149Z" fill="#333333"/>
<path d="M262.777 26.0255C262.818 26.8513 262.184 27.5038 261.358 27.4673C261.308 26.6415 261.951 25.9936 262.777 26.0255Z" fill="#333333"/>
<path d="M261.969 24.0908C261.417 24.6976 260.509 24.7022 259.962 24.0908C260.509 23.4795 261.417 23.4795 261.969 24.0908Z" fill="#333333"/>
<path d="M262.745 22.1424C261.919 22.1743 261.276 21.5265 261.326 20.7007C262.152 20.6642 262.791 21.3166 262.745 22.1424Z" fill="#333333"/>
<path d="M275.652 101.252C274.383 103.287 273.603 105.641 273.33 108.023C272.759 113.05 275.378 117.85 274.894 122.819C274.643 123.366 274.37 123.909 274.064 124.443C274.064 124.452 274.055 124.461 274.046 124.47C274.041 124.475 274.041 124.479 274.041 124.484C274.037 124.488 274.037 124.488 274.037 124.488C274.032 124.493 274.032 124.493 274.037 124.498C274.032 124.525 274.05 124.548 274.064 124.561C274.114 124.507 274.164 124.447 274.21 124.388C274.301 124.283 274.383 124.178 274.466 124.073C274.584 123.923 274.698 123.772 274.808 123.612C274.826 123.626 274.867 123.544 274.876 123.521C277.951 119.105 277.773 113.247 278.271 108.064C278.553 105.098 279.516 102.292 279.845 99.3541C279.922 98.6515 280.269 97.374 279.229 97.374C278.065 97.3786 276.172 100.417 275.652 101.252Z" fill="#263238"/>
<path d="M275.255 105.61C273.38 111.409 277.431 118.002 274.602 123.536C274.516 123.691 274.434 123.842 274.347 123.997C274.283 124.102 274.224 124.207 274.155 124.312C274.155 124.312 274.155 124.312 274.151 124.316C274.123 124.357 274.096 124.398 274.064 124.444C274.064 124.453 274.055 124.462 274.046 124.471C274.041 124.476 274.041 124.48 274.041 124.485C274.037 124.489 274.037 124.489 274.037 124.489C274.032 124.494 274.032 124.494 274.037 124.499C274.032 124.526 274.05 124.549 274.064 124.562C274.073 124.567 274.082 124.572 274.082 124.572C274.1 124.576 274.123 124.572 274.142 124.549C274.256 124.394 274.361 124.234 274.461 124.074C274.716 123.677 274.931 123.271 275.109 122.852C275.113 122.852 275.113 122.847 275.113 122.847C276.373 120.411 276.92 117.806 277.098 114.94C277.317 111.423 277.326 107.96 277.618 104.424C277.655 103.986 278.088 102.343 277.363 102.385C276.45 102.435 275.474 104.944 275.255 105.61ZM275.775 104.812C275.916 104.492 276.929 102.398 277.417 102.777C277.709 103 277.303 104.684 277.29 104.935C277.244 105.898 277.194 106.856 277.148 107.818C277.057 109.844 276.975 111.865 276.879 113.886C276.756 116.387 276.441 118.827 275.647 121.132C276.724 115.898 273.494 109.926 275.775 104.812Z" fill="#455A64"/>
<path d="M259.182 157.337C259.163 157.414 259.195 157.538 259.318 157.501C264.538 155.822 269.474 159.641 274.767 158.309C276.893 157.77 278.882 156.753 280.775 155.672C282.172 154.873 283.59 154.011 284.749 152.888C284.904 152.738 285.666 152.163 285.671 151.775C285.694 148.837 277.322 151.584 275.948 151.921C270.601 153.222 265.715 154.403 260.756 156.579C260.24 156.798 259.72 157.036 259.2 157.287C259.191 157.287 259.182 157.309 259.182 157.337Z" fill="#263238"/>
<path d="M259.181 157.337C259.373 157.278 259.56 157.219 259.747 157.164C263.201 156.512 266.75 156.899 270.268 156.94C273.818 156.977 277.025 156.347 280.137 154.595C280.684 154.285 282.929 153.135 282.614 152.173C282.331 151.306 280.132 152.241 279.621 152.378C275.811 153.35 272.066 154.367 268.183 155.047C265.701 155.48 263.192 155.905 260.76 156.58C260.244 156.799 259.724 157.036 259.204 157.287C259.191 157.287 259.181 157.31 259.181 157.337ZM261.59 156.653C264.392 155.941 267.252 155.485 270.113 154.96C272.075 154.6 274.018 154.162 275.944 153.642C276.998 153.354 278.052 153.053 279.11 152.775C279.644 152.633 280.173 152.501 280.702 152.378C280.967 152.31 281.852 152.077 281.952 152.483C282.222 153.578 275.811 157.068 269.127 156.63C266.618 156.466 264.072 156.352 261.59 156.653Z" fill="#455A64"/>
<path d="M268.84 150.878C268.817 150.892 268.817 150.924 268.831 150.937C268.845 150.96 268.868 150.969 268.9 150.951C269.018 150.883 269.132 150.823 269.246 150.755C269.671 150.513 270.086 150.262 270.496 150.007C270.569 149.956 270.647 149.915 270.72 149.865C270.743 149.865 270.756 149.865 270.775 149.861C275.305 147.169 280.995 147.497 285.155 144.089C287.008 142.57 288.445 140.626 289.681 138.591C290.215 137.711 292.36 135.165 291.36 134.088C290.58 133.253 288.778 134.139 288.025 134.517C285.625 135.722 283.613 137.761 281.679 139.582C279.785 141.365 277.992 143.241 276.154 145.075C274.447 146.772 272.609 148.204 270.688 149.582C270.086 150.016 269.465 150.445 268.84 150.878Z" fill="#263238"/>
<path d="M268.84 150.877C268.817 150.891 268.817 150.923 268.831 150.937C269.205 150.709 269.579 150.48 269.953 150.261C269.716 150.426 269.479 150.59 269.251 150.754C269.675 150.512 270.09 150.261 270.501 150.006C270.706 149.865 270.912 149.728 271.117 149.591C273.686 148.158 276.368 146.94 279.128 145.904C280.502 145.384 281.734 144.718 282.87 143.76C284.932 142.022 288.586 137.605 288.345 136.725C288.089 135.789 286.743 137.204 286.392 137.482C283.568 139.754 281.068 142.378 278.111 144.504C276.126 145.932 274.119 147.337 272.121 148.747C271.642 149.016 271.163 149.29 270.697 149.582C270.086 150.015 269.465 150.444 268.84 150.877ZM287.952 136.816C288.299 137.085 287.341 138.276 287.094 138.591C285.881 140.106 284.594 141.629 283.235 143.016C281.788 144.495 280.082 145.266 278.17 145.968C276.601 146.543 275.031 147.223 273.508 147.999C275.469 146.694 277.418 145.371 279.288 143.952C280.839 142.77 282.267 141.451 283.709 140.142C284.43 139.485 285.146 138.837 285.895 138.212C286.091 138.048 287.637 136.574 287.952 136.816Z" fill="#455A64"/>
<path d="M236.324 166.258C236.315 166.281 236.329 166.304 236.347 166.308C236.365 166.317 236.392 166.313 236.406 166.285C236.461 166.176 236.511 166.076 236.561 165.966C236.753 165.574 236.931 165.177 237.104 164.784C237.136 164.711 237.168 164.643 237.195 164.565C237.214 164.556 237.223 164.547 237.232 164.533C239.207 160.268 243.56 157.64 244.906 153.036C245.504 150.988 245.581 148.83 245.462 146.708C245.412 145.791 245.709 142.835 244.427 142.547C243.432 142.324 242.552 143.884 242.187 144.545C241.028 146.64 240.576 149.158 240.07 151.471C239.577 153.739 239.203 156.024 238.774 158.301C238.377 160.414 237.743 162.394 237.022 164.374C236.803 164.994 236.566 165.624 236.324 166.258Z" fill="#263238"/>
<path d="M236.324 166.258C236.315 166.281 236.329 166.304 236.347 166.308C236.506 165.953 236.666 165.597 236.83 165.245C236.739 165.487 236.648 165.729 236.561 165.966C236.753 165.574 236.931 165.177 237.104 164.785C237.186 164.579 237.264 164.374 237.35 164.169C238.518 161.819 239.878 159.57 241.384 157.416C242.132 156.344 242.702 155.231 243.054 153.953C243.692 151.631 244.158 146.54 243.537 146.015C242.876 145.454 242.602 147.174 242.483 147.557C241.552 150.655 241.032 153.844 239.928 156.896C239.185 158.949 238.423 160.993 237.661 163.037C237.442 163.475 237.232 163.922 237.036 164.369C236.803 164.994 236.566 165.624 236.324 166.258ZM238.309 161.792C239.093 159.844 239.86 157.886 240.521 155.902C241.069 154.25 241.452 152.562 241.854 150.869C242.054 150.025 242.255 149.181 242.488 148.351C242.552 148.123 242.949 146.261 243.3 146.279C243.692 146.302 243.587 147.662 243.565 148.018C243.437 149.747 243.259 151.513 242.953 153.223C242.634 155.039 241.767 156.467 240.713 157.946C239.851 159.159 239.039 160.45 238.309 161.792Z" fill="#455A64"/>
<path d="M234.818 169.83C234.896 169.853 235.024 169.853 235.197 169.803C240.22 169.274 245.225 170.528 250.267 170.004C252.47 169.776 254.665 169.16 256.522 167.919C257.32 167.39 260.071 165.565 259.903 164.333C259.396 160.628 241.219 167.025 235.156 169.447C235.037 169.475 234.951 169.507 234.882 169.543C234.691 169.648 234.681 169.785 234.818 169.83Z" fill="#263238"/>
<path d="M234.818 169.831C235.206 169.735 235.594 169.634 235.986 169.543C237.209 169.393 238.441 169.269 239.673 169.215C241.63 169.128 243.578 169.288 245.535 169.311C248.592 169.352 251.608 168.695 254.314 167.257C254.902 166.952 256.613 166.167 256.526 165.273C256.444 164.456 255.098 164.88 254.642 164.963C248.127 166.181 241.653 167.851 235.215 169.47C235.101 169.493 234.992 169.511 234.882 169.539C234.691 169.648 234.681 169.785 234.818 169.831ZM237.893 169.078C240.407 168.471 242.921 167.864 245.435 167.28C247.406 166.819 249.377 166.368 251.353 165.921C252.329 165.702 253.301 165.469 254.282 165.264C254.669 165.186 256.166 164.862 256.161 165.373C256.161 165.839 255.012 166.527 254.802 166.651C251.489 168.631 247.789 169.114 244.007 168.959C241.963 168.873 239.919 168.877 237.893 169.078Z" fill="#455A64"/>
<path d="M266.919 137.154C266.865 137.209 266.846 137.268 266.851 137.323C266.856 137.409 266.924 137.482 267.011 137.514C267.052 137.537 267.097 137.542 267.148 137.537C267.175 137.546 267.202 137.546 267.234 137.533C269.949 136.004 273.754 134.918 276.51 133.49C278.622 132.391 280.511 130.913 282.213 129.247C284.092 127.409 285.844 125.333 287.227 123.083C287.884 122.011 289.627 119.52 288.983 118.124C287.669 115.245 281.446 122.778 280.625 123.59C276.044 128.093 271.459 132.601 266.919 137.154Z" fill="#263238"/>
<path d="M266.855 137.323C266.86 137.41 266.928 137.483 267.015 137.515C267.189 137.369 267.366 137.218 267.54 137.072C268.644 136.31 269.753 135.544 270.902 134.841C272.773 133.696 274.799 132.811 276.628 131.602C279.817 129.499 286.766 121.939 285.675 120.707C285.105 120.063 283.773 121.647 283.403 122.007C281.962 123.435 280.712 125.037 279.247 126.451C277.719 127.938 276.104 129.33 274.493 130.726C272.006 132.87 269.515 135.005 267.052 137.177C266.983 137.227 266.919 137.273 266.855 137.323ZM269.187 135.667C271.395 133.774 273.58 131.862 275.78 129.955C277.294 128.636 278.8 127.299 280.214 125.871C281.004 125.073 281.747 124.229 282.491 123.385C282.856 122.979 283.216 122.564 283.609 122.176C283.946 121.843 285.242 120.433 285.47 121.136C285.689 121.815 283.846 124.106 283.413 124.635C282.701 125.493 281.984 126.341 281.232 127.163C279.749 128.778 278.138 130.297 276.291 131.492C274.447 132.683 272.431 133.573 270.578 134.75C270.113 135.051 269.648 135.352 269.187 135.667Z" fill="#455A64"/>
<path d="M239.983 134.549C242.793 139.906 248.861 142.803 249.181 150.965C249.176 150.997 249.217 151.006 249.236 150.992C249.249 150.992 249.258 150.978 249.254 150.969C249.313 150.171 249.345 149.368 249.341 148.56C249.345 144.222 248.506 139.787 246.881 135.799C245.896 133.409 244.586 131.127 242.935 129.138C242.086 128.121 240.334 125.634 238.952 125.58C235.973 125.456 239.467 133.577 239.983 134.549Z" fill="#263238"/>
<path d="M240.927 131.967C241.689 135.521 244.308 138.39 246.078 141.47C247.296 143.592 248.323 145.832 248.98 148.177C249.085 149.112 249.167 150.047 249.235 150.992C249.249 150.992 249.258 150.978 249.254 150.969C249.313 150.171 249.345 149.368 249.34 148.56C249.327 148.514 249.318 148.469 249.304 148.419C249.08 145.882 248.51 143.341 247.771 140.964C246.735 137.615 245.23 134.407 243.309 131.483C242.976 130.972 241.995 128.887 241.133 129.12C240.307 129.348 240.818 131.469 240.927 131.967ZM241.306 129.466C241.904 129.407 243.77 132.605 244.491 133.901C246.042 136.684 247.237 139.672 248.036 142.761C248.387 144.116 248.629 145.458 248.816 146.817C248.305 145.321 247.657 143.874 246.909 142.469C245.348 139.549 243.122 136.949 241.812 133.91C241.47 133.116 241.206 132.281 241.069 131.424C241.014 131.081 240.759 129.521 241.306 129.466Z" fill="#455A64"/>
<path d="M251.152 112.388C250.335 114.414 249.738 116.545 249.418 118.707C248.789 122.937 249.204 127.166 250.513 131.217C250.536 131.286 250.559 131.363 250.586 131.436C250.568 131.646 250.55 131.856 250.55 132.066C250.545 132.116 250.545 132.157 250.541 132.212C250.541 132.226 250.541 132.23 250.545 132.244L250.55 132.249C250.568 132.29 250.636 132.29 250.65 132.23C250.714 131.984 250.787 131.738 250.855 131.491C252.293 126.418 254.569 121.682 255.244 116.399C255.39 115.244 256.609 107.758 253.73 108.328C252.388 108.588 251.567 111.357 251.152 112.388Z" fill="#263238"/>
<path d="M251.896 113.685C250.883 116.778 250.805 120.369 250.636 123.599C250.504 126.108 250.39 128.681 250.518 131.218C250.522 131.423 250.536 131.638 250.55 131.843C250.55 131.916 250.55 131.994 250.55 132.067C250.545 132.126 250.545 132.181 250.545 132.24L250.55 132.245C250.568 132.286 250.636 132.286 250.65 132.226C250.714 131.98 250.787 131.734 250.855 131.487C250.855 131.286 250.851 131.086 250.851 130.885C251.22 128.015 251.996 125.241 252.772 122.435C253.191 120.921 253.57 119.406 253.839 117.859C254.099 116.372 254.446 114.789 254.368 113.274C254.332 112.612 254.245 111.298 253.269 111.517C252.448 111.7 252.115 113.032 251.896 113.685ZM254.049 113.123C254.149 114.917 253.711 116.874 253.365 118.635C253.041 120.318 252.58 121.975 252.119 123.622C251.635 125.369 251.138 127.148 250.832 128.946C250.819 126.578 250.828 124.21 251.001 121.829C251.138 119.967 251.316 118.106 251.59 116.258C251.727 115.304 251.909 114.36 252.242 113.447C252.356 113.128 252.484 112.8 252.639 112.503C253.137 111.54 254.008 112.316 254.049 113.123Z" fill="#455A64"/>
<path d="M285.963 107.502C285.922 107.58 285.89 107.657 285.849 107.73C285.79 107.849 285.89 107.945 285.995 107.949C286.054 107.949 286.104 107.922 286.136 107.862C286.209 107.726 286.282 107.584 286.355 107.447L286.36 107.443C286.419 107.329 286.479 107.224 286.538 107.11C286.698 106.941 286.871 106.781 287.049 106.626C288.942 104.942 291.748 103.838 293.801 102.515C295.672 101.315 297.483 100.015 299.085 98.4638C300.704 96.8989 302.123 95.0922 302.981 92.9889C303.209 92.4232 303.88 91.0225 303.245 90.4568C302.447 89.745 300.563 91.1366 299.947 91.4696C297.803 92.6194 295.845 94.093 294.08 95.7629C290.535 99.1254 288.103 103.168 285.963 107.502Z" fill="#263238"/>
<path d="M286.647 106.598C286.401 106.89 286.168 107.191 285.963 107.502C285.922 107.579 285.89 107.657 285.849 107.73C285.79 107.848 285.89 107.944 285.995 107.949C286.027 107.894 286.059 107.839 286.095 107.789C286.182 107.675 286.269 107.561 286.355 107.447L286.36 107.442C286.579 107.159 286.812 106.89 287.049 106.626C287.884 105.686 288.815 104.837 289.868 104.002C291.625 102.615 293.436 101.297 295.143 99.8459C296 99.1204 302.579 93.5178 300.887 92.3635C300.572 92.1445 300.107 92.5232 299.865 92.6692C299.021 93.1802 298.268 93.8508 297.547 94.517C295.859 96.0591 294.23 97.6742 292.652 99.3303C290.48 101.612 288.45 104.02 286.647 106.598ZM291.935 100.407C293.299 98.9288 294.714 97.5008 296.16 96.1092C296.863 95.434 297.57 94.7451 298.314 94.1063C298.679 93.787 300.481 92.4046 300.786 92.7285C301.233 93.2075 299.24 95.58 298.656 96.2096C297.99 96.9259 297.292 97.6057 296.575 98.2718C295.134 99.6041 293.601 100.84 292.049 102.04C290.676 103.108 289.084 104.198 287.724 105.48C289.034 103.715 290.448 102.031 291.935 100.407Z" fill="#455A64"/>
<path d="M263.274 127.052C263.279 127.139 263.288 127.221 263.292 127.308C263.301 127.44 263.438 127.472 263.525 127.422C263.575 127.395 263.607 127.344 263.603 127.276C263.598 127.121 263.593 126.961 263.584 126.806V126.801C263.58 126.674 263.575 126.55 263.571 126.423C263.625 126.195 263.689 125.971 263.767 125.748C264.561 123.339 266.431 120.98 267.544 118.804C268.562 116.828 269.474 114.793 270.081 112.649C270.693 110.482 271.016 108.205 270.706 105.96C270.62 105.358 270.496 103.807 269.666 103.638C268.617 103.424 267.69 105.572 267.316 106.17C266.039 108.242 265.085 110.5 264.396 112.827C263.023 117.512 262.946 122.23 263.274 127.052Z" fill="#263238"/>
<path d="M263.411 125.925C263.342 126.299 263.297 126.678 263.274 127.052C263.278 127.139 263.288 127.221 263.292 127.308C263.301 127.44 263.438 127.472 263.525 127.422C263.525 127.358 263.529 127.294 263.534 127.235C263.552 127.093 263.566 126.952 263.589 126.806V126.801C263.639 126.445 263.703 126.099 263.771 125.747C264.022 124.515 264.401 123.311 264.894 122.065C265.719 119.985 266.623 117.936 267.371 115.824C267.745 114.766 270.629 106.617 268.585 106.471C268.201 106.439 267.987 107 267.855 107.247C267.38 108.114 267.065 109.072 266.773 110.007C266.089 112.188 265.487 114.401 264.953 116.627C264.223 119.688 263.675 122.791 263.411 125.925ZM264.88 117.918C265.318 115.956 265.824 114.013 266.376 112.078C266.646 111.138 266.91 110.189 267.234 109.263C267.394 108.802 268.252 106.704 268.68 106.831C269.305 107.023 268.772 110.075 268.585 110.91C268.366 111.864 268.106 112.804 267.823 113.734C267.243 115.61 266.541 117.448 265.797 119.269C265.145 120.879 264.314 122.622 263.78 124.42C264.027 122.239 264.405 120.067 264.88 117.918Z" fill="#455A64"/>
<path d="M251.243 127.504C250.741 132.112 250.422 136.661 250.44 141.296C250.454 144.868 250.463 148.496 249.664 152C248.715 156.183 246.288 160.467 243.122 163.885C244.701 162.849 246.27 161.795 247.835 160.714C251.019 158.515 254.209 156.238 256.818 153.359C257.074 153.076 257.32 152.78 257.562 152.488C257.553 152.46 257.553 152.433 257.567 152.401C259.766 148.14 261.185 143.783 262.02 139.207C261.892 136.642 261.522 134.27 260.888 131.71C260.263 129.178 259.67 126.719 259.679 124.087C259.679 123.936 259.898 123.904 259.916 124.059C260.29 127.636 261.992 131.478 262.59 135.246C262.654 134.667 262.708 134.087 262.759 133.504C263.206 127.915 262.791 122.061 266.162 117.252C266.276 117.092 266.495 117.28 266.395 117.439C262.973 122.887 264.118 130.196 263.402 136.323C262.868 140.881 261.823 145.662 259.592 149.75C261.052 147.565 262.293 145.229 263.511 142.898C270.857 128.832 278.709 114.985 289.608 103.328C289.713 103.214 289.905 103.364 289.8 103.483C278.417 116.253 271.185 131.505 263.064 146.37C262.973 146.538 262.877 146.707 262.781 146.871C264.629 145.115 266.851 143.65 268.968 142.464C269.078 142.405 269.187 142.546 269.082 142.624C266.221 144.786 263.794 147.346 261.112 149.686C259.811 151.717 258.356 153.637 256.622 155.348C254.551 157.388 252.238 159.135 249.861 160.8C253.579 159.062 257.316 157.365 260.911 155.353C266.345 152.314 271.642 148.966 276.624 145.229C276.697 145.174 276.774 145.284 276.706 145.343C271.669 149.477 266.427 153.286 260.769 156.539C255.983 159.29 250.91 162.041 245.604 163.72C239.933 167.557 233.956 171.335 227.496 173.53C227.185 173.635 227.039 173.206 227.318 173.064C228.563 172.439 229.791 171.791 231.009 171.13C232.519 169.268 234.348 167.676 235.776 165.71C237.455 163.396 238.824 160.924 239.915 158.287C239.997 158.09 240.275 158.223 240.211 158.414C238.988 162.078 236.931 166.44 233.993 169.469C235.745 168.465 237.478 167.434 239.189 166.371C244.208 161.882 248.255 156.033 249.213 149.312C249.706 145.859 249.605 142.368 249.692 138.892C249.788 135.018 250.308 131.259 250.988 127.449C251.015 127.303 251.261 127.34 251.243 127.504Z" fill="#263238"/>
<path d="M259.392 113.668C262.375 110.059 264.953 106.149 267.389 102.161C269.817 98.1647 272.034 94.0403 274.082 89.8337C275.118 87.735 276.053 85.5907 277.012 83.4555C277.901 81.2929 278.841 79.144 279.653 76.9495C281.382 72.6015 282.788 68.0984 283.965 63.5588C285.128 59.0055 285.99 54.3838 286.661 49.7347C287.254 45.0764 287.628 40.3817 287.66 35.6824C287.624 30.9831 287.414 26.2793 286.766 21.621C286.091 16.9856 285.155 12.3 283.089 8.06152L282.924 8.13909C283.7 10.3336 284.28 12.5783 284.635 14.8732C285.046 17.1499 285.315 19.4584 285.498 21.767C285.867 26.3842 285.981 31.0242 285.826 35.655L285.703 39.127C285.657 40.2859 285.548 41.4402 285.475 42.5945L285.365 44.3282L285.201 46.0573C285.087 47.2116 284.996 48.3659 284.859 49.5157C284.311 54.1146 283.572 58.6998 282.541 63.2212C281.464 67.7334 280.178 72.1817 278.54 76.5389C277.778 78.7379 276.884 80.8868 276.044 83.054C275.132 85.1938 274.247 87.3472 273.257 89.4505C271.331 93.6844 269.233 97.8454 266.919 101.888C264.602 105.921 262.129 109.89 259.255 113.554L259.392 113.668Z" fill="#37474F"/>
<path d="M266.951 102.116C268.293 101.81 269.465 101.103 270.592 100.368C271.149 99.9896 271.696 99.5973 272.216 99.1638C272.755 98.7532 273.248 98.297 273.749 97.8453C275.716 96.0021 277.486 93.9627 279.133 91.8366C279.95 90.769 280.744 89.6831 281.537 88.5973C282.281 87.4795 283.02 86.3526 283.636 85.1618C284.882 82.7802 285.945 80.3119 286.702 77.7159L286.538 77.6338C285.694 78.6968 284.941 79.7964 284.22 80.9142C283.486 82.0228 282.751 83.1178 282.053 84.2402C281.359 85.3625 280.643 86.4621 280.009 87.6209C279.343 88.757 278.659 89.8839 277.942 90.9834C276.478 93.1688 274.89 95.2721 273.102 97.1974C272.654 97.6765 272.212 98.1647 271.728 98.6072C271.263 99.0726 270.766 99.4969 270.259 99.9166C269.233 100.715 268.147 101.518 266.919 101.938L266.951 102.116Z" fill="#37474F"/>
<path d="M273.22 90.7464C271.468 86.6722 270.264 82.3835 269.347 78.0583C268.425 73.7331 267.768 69.3532 267.54 64.9459C267.298 60.5386 267.417 56.1359 267.645 51.7469C267.668 49.5432 267.928 47.3578 268.06 45.145C268.106 44.0364 268.279 42.9459 268.389 41.8418C268.484 40.7332 268.617 39.6291 268.685 38.5113L268.507 38.4702C267.148 42.727 266.189 47.1434 265.82 51.6191C265.323 56.0948 265.669 60.6071 266.08 65.0646C266.5 69.5266 267.348 73.943 268.457 78.2682C269.62 82.5842 271.071 86.8227 273.056 90.824L273.22 90.7464Z" fill="#37474F"/>
<path d="M280.141 74.148C283.098 71.8394 285.484 68.8875 287.523 65.7349C289.526 62.5503 291.082 59.1011 292.305 55.5333C292.838 53.7266 293.436 51.929 293.801 50.0767C293.974 49.1505 294.244 48.2335 294.335 47.2936C294.444 46.3583 294.536 45.4185 294.622 44.4786C294.796 42.5989 294.686 40.7055 294.663 38.8349C294.536 36.9597 294.257 35.0937 293.961 33.2505L293.778 33.2642C293.578 35.1348 293.486 36.9871 293.377 38.8258C293.267 39.7428 293.19 40.6599 293.099 41.5769C293.021 42.4894 292.971 43.4064 292.802 44.3098C292.533 46.1211 292.387 47.946 292.026 49.7391C291.807 51.5595 291.328 53.3297 290.904 55.1136C289.891 58.6312 288.541 62.0667 286.738 65.2741C284.955 68.4769 282.792 71.5474 280.032 74.0066L280.141 74.148Z" fill="#37474F"/>
<path d="M284.184 59.7033C284.033 55.9895 283.846 52.2803 283.604 48.5665C283.463 46.7096 283.312 44.8572 283.102 42.9958C282.993 42.0742 282.879 41.116 282.655 40.1808C282.445 39.25 282.204 38.3558 281.957 37.4524C280.963 33.8618 280.055 30.2529 278.809 26.7536C277.614 23.2451 276.177 19.7913 274.876 16.3467L274.694 16.3604C274.812 18.2766 275.246 20.0879 275.657 21.9037C276.076 23.7195 276.564 25.5171 277.066 27.3056C278.056 30.8871 279.416 34.35 280.557 37.8676C280.839 38.7436 281.127 39.6287 281.369 40.5001C281.624 41.3624 281.77 42.2475 281.925 43.16C282.222 44.9759 282.464 46.8145 282.696 48.6532C283.18 52.3305 283.609 56.0215 284.001 59.7125L284.184 59.7033Z" fill="#37474F"/>
<path d="M263.657 107.745C263.37 105.729 263.169 103.703 263.078 101.673C262.95 99.6471 262.923 97.6214 262.982 95.6003C263.023 93.5791 263.315 91.5762 263.347 89.5688C263.361 87.5522 263.475 85.5493 263.329 83.4506L263.151 83.4141C262.302 85.3303 261.787 87.3697 261.522 89.4228C261.367 90.4493 261.353 91.4895 261.353 92.5252C261.413 93.5609 261.431 94.5965 261.518 95.6231C261.641 97.6853 261.855 99.7338 262.165 101.769C262.508 103.799 262.895 105.816 263.475 107.786L263.657 107.745Z" fill="#37474F"/>
<path d="M277.016 93.5931C278.111 91.2298 279.023 88.7935 279.813 86.3024C280.191 85.0569 280.716 83.825 280.803 82.4973C280.899 81.1834 280.885 79.8192 280.424 78.5007L280.242 78.4961C279.689 79.7599 279.329 80.9598 279.001 82.1871C278.658 83.4053 278.613 84.6919 278.389 85.9557C278.179 87.2194 277.924 88.4787 277.655 89.7379C277.413 91.0062 277.121 92.2655 276.843 93.5293L277.016 93.5931Z" fill="#37474F"/>
<path d="M266.846 64.704C266.167 63.349 265.505 61.9894 264.894 60.6115C264.26 59.2428 263.657 57.8649 263.119 56.4688C262.571 55.0727 262.211 53.6219 261.623 52.2714C261.043 50.9072 260.464 49.5796 259.798 48.147L259.615 48.1652C259.282 49.7484 259.515 51.3498 259.889 52.8554C260.254 54.3838 261.084 55.716 261.787 57.0756C262.503 58.4307 263.279 59.7492 264.086 61.0449C264.921 62.3224 265.761 63.5908 266.691 64.7998L266.846 64.704Z" fill="#37474F"/>
<path d="M269.018 78.3594C270.077 75.9504 270.907 73.4502 271.587 70.8953C271.911 69.6178 272.362 68.3358 272.376 66.9899C272.394 65.6531 272.276 64.2798 271.737 62.9795L271.555 62.9841C271.08 64.2935 270.811 65.5299 270.556 66.7845C270.282 68.0301 270.309 69.3258 270.145 70.6079C269.985 71.8899 269.789 73.1719 269.556 74.4494C269.351 75.736 269.096 77.0135 268.84 78.2955L269.018 78.3594Z" fill="#37474F"/>
<path d="M262.521 99.843C261.572 98.2188 260.801 96.5079 260.13 94.8061C259.793 93.9484 259.683 93.0268 259.264 92.2283C258.844 91.4162 258.456 90.6087 257.781 89.7783L257.598 89.8103C257.279 90.8231 257.315 91.8542 257.525 92.8169C257.717 93.7933 258.31 94.619 258.807 95.4448C259.3 96.2798 259.843 97.0782 260.436 97.8356C261.047 98.5792 261.663 99.3092 262.371 99.9571L262.521 99.843Z" fill="#37474F"/>
<path d="M282.865 45.1764C282.235 43.7118 281.551 42.2747 280.889 40.8284L278.786 36.5397C278.065 35.1208 277.472 33.6243 276.537 32.3195C275.611 31.0192 274.602 29.7417 273.275 28.7197L273.124 28.8247C273.612 30.4033 274.256 31.8404 274.967 33.2593C275.661 34.6828 276.66 35.9283 277.513 37.2651L280.086 41.2709L282.701 45.2631L282.865 45.1764Z" fill="#37474F"/>
<path d="M293.007 50.0672C293.619 49.1684 294.175 48.2423 294.746 47.3161C295.302 46.3854 295.841 45.4455 296.352 44.4874C296.863 43.5339 297.515 42.6305 297.802 41.5675C298.094 40.5135 298.313 39.4094 298.154 38.2232L297.98 38.1685C297.177 39.0353 296.616 39.9387 296.105 40.8785C295.585 41.8093 295.38 42.8814 295.015 43.8897C294.271 45.9018 293.564 47.9412 292.848 49.9806L293.007 50.0672Z" fill="#37474F"/>
<path d="M286.821 36.0016C287.747 34.4458 288.463 32.776 289.093 31.0742C289.686 29.3587 290.147 27.5885 290.466 25.7818C290.649 24.883 290.749 23.966 290.872 23.0489C290.931 22.1273 290.986 21.1966 290.845 20.275C290.776 19.8142 290.717 19.3579 290.635 18.9017C290.516 18.45 290.411 17.9983 290.27 17.5558C290.037 16.6615 289.599 15.8175 289.166 15.0054L288.988 15.0556C288.919 16.9216 289.074 18.6325 289.011 20.3799C288.979 22.1045 289.161 23.8428 289.006 25.5947C288.878 27.3422 288.614 29.0896 288.208 30.8141C287.824 32.5433 287.304 34.2542 286.652 35.9149L286.821 36.0016Z" fill="#37474F"/>
<path d="M87.6482 114.137C87.566 109.456 86.982 104.807 86.2338 100.195C85.4764 95.582 84.4773 91.0059 83.291 86.48C82.7116 84.2125 82.0272 81.9769 81.3657 79.7322C80.6357 77.5103 79.9514 75.2701 79.1392 73.0756C77.6245 68.6455 75.7585 64.3158 73.6963 60.1001C71.6158 55.889 69.2662 51.8147 66.7477 47.85C64.1654 43.9263 61.396 40.1213 58.362 36.5306C55.2732 32.9856 52.0567 29.5501 48.5345 26.434C45.0078 23.3544 41.2438 20.4071 36.9186 18.5273L36.8411 18.6916C38.8577 19.855 40.7556 21.1827 42.5213 22.6883C44.3143 24.1528 46.0206 25.7268 47.6631 27.3602C50.9481 30.6269 54.0551 34.0761 56.9522 37.6895L59.1194 40.4041C59.8402 41.3121 60.5063 42.261 61.2044 43.1827L62.2492 44.5696L63.2483 45.9885C63.9099 46.9375 64.5943 47.8774 65.2376 48.8355C67.8153 52.6816 70.238 56.6418 72.3914 60.748C74.5084 64.8724 76.4292 69.0926 78.0215 73.4634C78.8701 75.6306 79.5909 77.8388 80.362 80.0333C81.06 82.2506 81.79 84.4634 82.4105 86.7036C83.7062 91.1747 84.8149 95.6961 85.6909 100.272C86.5532 104.844 87.2603 109.465 87.4657 114.119L87.6482 114.137Z" fill="#37474F"/>
<path d="M85.8731 100.446C86.6943 99.3369 87.1186 98.0412 87.4973 96.75C87.6753 96.0976 87.8349 95.4452 87.9444 94.7791C88.0859 94.1175 88.1634 93.4514 88.2501 92.7807C88.5421 90.1026 88.5649 87.4016 88.4281 84.7144C88.3551 83.373 88.2501 82.0317 88.1452 80.6903C87.9855 79.3581 87.8121 78.0213 87.5019 76.7164C86.8997 74.1022 86.1012 71.5335 84.988 69.0698L84.8101 69.1155C84.8602 70.4751 85.0062 71.7982 85.1842 73.1121C85.3484 74.4307 85.5035 75.7446 85.7043 77.0449C85.905 78.3498 86.0784 79.6501 86.3522 80.9412C86.5848 82.237 86.7993 83.5373 86.9681 84.8421C87.2783 87.4518 87.438 90.0843 87.3376 92.7077C87.3103 93.3647 87.292 94.0217 87.2099 94.6741C87.1597 95.3311 87.0593 95.979 86.9453 96.6223C86.6852 97.8952 86.3795 99.2137 85.7271 100.332L85.8731 100.446Z" fill="#37474F"/>
<path d="M83.2315 87.7299C79.2531 85.7772 75.5439 83.3043 72.0354 80.6171C68.5223 77.9344 65.1735 75.0327 62.1304 71.839C59.0827 68.6499 56.3041 65.2326 53.6214 61.7469C52.2071 60.0588 50.9798 58.2293 49.643 56.4636C48.9586 55.5922 48.3792 54.6524 47.7405 53.7399C47.0926 52.8365 46.4767 51.9149 45.7969 51.0161L45.6372 51.1028C47.3755 55.2181 49.5198 59.1965 52.1523 62.8373C54.689 66.5603 57.8873 69.7585 61.0992 72.8747C64.3203 75.9908 67.8379 78.7921 71.497 81.3516C75.188 83.8701 79.0478 86.1467 83.1585 87.8941L83.2315 87.7299Z" fill="#37474F"/>
<path d="M77.6883 70.6256C78.4319 66.9483 78.3224 63.1523 77.8206 59.434C77.2685 55.7156 76.2055 52.0793 74.8094 48.5754C74.0429 46.8554 73.3266 45.1034 72.3959 43.4564C71.9214 42.6397 71.5336 41.7683 70.9906 40.9972C70.466 40.2125 69.923 39.4414 69.3755 38.6704C68.2851 37.1329 66.9711 35.7641 65.7347 34.3589C64.4162 33.0176 62.9882 31.7811 61.5647 30.5767L61.4324 30.7044C62.5 32.2556 63.6315 33.7202 64.7447 35.1893C65.2557 35.9603 65.7986 36.704 66.3233 37.4568C66.8571 38.205 67.4183 38.9304 67.8745 39.7243C68.8463 41.2755 69.923 42.7583 70.8173 44.3506C71.8347 45.879 72.624 47.5306 73.4635 49.1594C74.9828 52.49 76.1964 55.9756 76.9127 59.5845C77.6426 63.1797 77.9985 66.9118 77.5058 70.5799L77.6883 70.6256Z" fill="#37474F"/>
<path d="M71.3558 57.0294C68.8236 54.3102 66.2687 51.6138 63.6727 48.9493C62.3587 47.6308 61.0402 46.3214 59.6669 45.0485C58.9825 44.4188 58.2753 43.7664 57.4952 43.2052C56.7287 42.6349 55.9622 42.1148 55.1911 41.5856C52.0978 39.5051 49.0592 37.3562 45.8382 35.513C42.649 33.6287 39.3094 31.9406 36.0792 30.1704L35.9514 30.2982C37.2882 31.676 38.7938 32.771 40.2903 33.8842C41.7913 34.9883 43.3288 36.0377 44.8755 37.0688C47.9597 39.1447 51.2446 40.8875 54.4018 42.8174C55.1866 43.301 55.9804 43.7847 56.7287 44.2865C57.4815 44.7747 58.1704 45.3496 58.8821 45.9427C60.2919 47.1289 61.6698 48.3653 63.0431 49.6154C65.8033 52.0928 68.5271 54.6158 71.2326 57.1617L71.3558 57.0294Z" fill="#37474F"/>
<path d="M87.0369 106.865C85.5039 105.524 84.0348 104.109 82.6478 102.631C81.2335 101.176 79.8921 99.6563 78.6238 98.0822C77.3372 96.5219 76.2604 94.811 74.9784 93.2643C73.6735 91.7222 72.4599 90.1299 70.9817 88.6289L70.822 88.7202C71.4243 90.7276 72.3596 92.6119 73.4956 94.341C74.0431 95.2216 74.7092 96.02 75.3844 96.8048C76.1053 97.553 76.7897 98.324 77.5242 99.054C78.9568 100.541 80.4579 101.956 82.0136 103.297C83.5922 104.616 85.2028 105.893 86.9228 107.011L87.0369 106.865Z" fill="#37474F"/>
<path d="M87.9676 87.4239C87.2604 84.9191 86.3707 82.4737 85.3488 80.0693C84.8241 78.8739 84.4226 77.5965 83.6242 76.5334C82.844 75.4704 81.9452 74.4438 80.7362 73.7412L80.5947 73.8553C81.0008 75.1692 81.5072 76.319 82.0547 77.4687C82.5885 78.6139 83.3915 79.6267 84.0439 80.7308C84.7055 81.8258 85.3351 82.9527 85.9464 84.0842C86.5852 85.2066 87.1874 86.3517 87.7988 87.4923L87.9676 87.4239Z" fill="#37474F"/>
<path d="M61.4462 72.104C60.0501 71.5155 58.6585 70.9178 57.2989 70.2654C55.9256 69.6403 54.5706 68.9833 53.2566 68.2716C51.9335 67.569 50.7154 66.6976 49.3923 66.0588C48.0646 65.4018 46.7643 64.7677 45.3226 64.1152L45.1948 64.2475C45.9704 65.6665 47.1932 66.7295 48.457 67.6329C49.7253 68.5545 51.2263 69.029 52.6453 69.6038C54.0733 70.165 55.5196 70.6623 56.975 71.1231C58.4395 71.5474 59.9041 71.9672 61.396 72.282L61.4462 72.104Z" fill="#37474F"/>
<path d="M71.9808 81.0648C71.2143 78.5463 70.2197 76.11 69.0745 73.7238C68.4905 72.5422 67.9978 71.2784 67.1355 70.2427C66.2777 69.2162 65.2968 68.2489 64.0421 67.6147L63.9053 67.7379C64.398 69.0428 64.9957 70.156 65.6207 71.2738C66.223 72.4007 67.0898 73.3634 67.8016 74.4447C68.5179 75.5214 69.1977 76.6255 69.8547 77.7433C70.539 78.852 71.1732 79.988 71.8119 81.1286L71.9808 81.0648Z" fill="#37474F"/>
<path d="M81.0281 101.6C79.2488 100.984 77.5516 100.186 75.9365 99.3323C75.1244 98.8989 74.44 98.2738 73.6005 97.9362C72.7565 97.594 71.9352 97.2291 70.8813 97.042L70.7627 97.1834C71.1824 98.1598 71.8759 98.9171 72.6652 99.5103C73.4454 100.126 74.4354 100.368 75.3479 100.674C76.265 100.988 77.2003 101.239 78.1401 101.426C79.0891 101.595 80.0335 101.746 80.9916 101.778L81.0281 101.6Z" fill="#37474F"/>
<path d="M60.9032 46.8554C59.4706 46.1528 58.0197 45.505 56.5734 44.8388L52.1889 42.95C50.7198 42.3386 49.2918 41.5904 47.736 41.2117C46.1894 40.8239 44.5879 40.5091 42.9135 40.6004L42.8679 40.7783C44.2686 41.6588 45.6875 42.3295 47.152 42.9454C48.6029 43.5751 50.1723 43.8716 51.6916 44.3279L56.2541 45.6966L60.8393 47.0242L60.9032 46.8554Z" fill="#37474F"/>
<path d="M71.7891 43.9673C71.6705 42.886 71.4834 41.823 71.3192 40.7463C71.1367 39.6786 70.9314 38.6156 70.6941 37.5571C70.4614 36.4986 70.3702 35.39 69.8957 34.3954C69.4303 33.4053 68.8783 32.4244 67.9886 31.626L67.8198 31.699C67.7742 32.8806 67.9339 33.93 68.162 34.9794C68.3719 36.0242 68.9148 36.9731 69.2935 37.9769C70.0371 39.9843 70.831 41.9964 71.6112 44.0129L71.7891 43.9673Z" fill="#37474F"/>
<path d="M57.9376 37.3154C57.6319 35.5315 57.089 33.7977 56.4594 32.0914C55.7933 30.3987 54.9903 28.7563 54.0596 27.1777C53.6124 26.3747 53.0923 25.6173 52.5905 24.8372C52.0384 24.098 51.4727 23.3589 50.7655 22.7521C50.4142 22.4464 50.072 22.1362 49.7116 21.8442C49.3283 21.5796 48.9542 21.3058 48.5618 21.0595C47.8045 20.5302 46.9239 20.1744 46.0662 19.8413L45.9658 19.9919C47.1247 21.4518 48.3611 22.6518 49.4469 24.0205C50.5465 25.3527 51.8148 26.5526 52.8368 27.9852C53.8771 29.395 54.8123 30.896 55.6245 32.4701C56.4594 34.0304 57.1757 35.6683 57.7597 37.3564L57.9376 37.3154Z" fill="#37474F"/>
<path d="M0.19121 73.9068C-0.721273 71.5754 8.01119 77.9582 15.3339 79.8744C26.968 82.9221 39.1451 87.991 44.1091 95.7197C46.4633 99.3833 42.097 95.1312 33.1912 93.3244C25.832 91.828 8.35794 94.7251 0.19121 73.9068Z" fill="#455A64"/>
<path d="M0.209473 73.4414C1.59645 75.0839 3.14767 76.5667 4.81751 77.8898C6.47823 79.222 8.25301 80.4082 10.119 81.4074C11.9942 82.3929 13.9424 83.2278 15.9772 83.789C16.4836 83.9395 16.9946 84.0582 17.5056 84.1859L19.0751 84.5509C20.1244 84.7973 21.1692 85.0528 22.2095 85.3219C26.3704 86.4215 30.5176 87.6807 34.4641 89.4692C36.4351 90.3634 38.3513 91.3945 40.1352 92.6264C41.8963 93.8765 43.557 95.3182 44.8208 97.0656C43.3699 95.4779 41.6773 94.1548 39.8478 93.0689C38.0274 91.9648 36.102 91.0523 34.1356 90.2402C32.1601 89.4464 30.1526 88.7301 28.1087 88.1096C26.0738 87.4754 24.0116 86.896 21.9403 86.3667C20.9046 86.093 19.8689 85.8329 18.8287 85.5774L17.2684 85.1988C16.7391 85.0619 16.2053 84.9387 15.6852 84.7653C13.5956 84.1266 11.5836 83.2415 9.70843 82.1419C5.95812 79.9429 2.66405 76.9727 0.209473 73.4414Z" fill="white"/>
<path d="M6.85247 22.7938C10.799 21.051 17.7932 45.136 16.8944 45.5329C15.9956 45.9298 2.36762 24.7739 6.85247 22.7938Z" fill="#FFB703"/>
<path d="M15.6534 16.548C19.9649 16.3518 17.7749 41.3356 16.794 41.3767C15.8131 41.4223 10.7534 16.7716 15.6534 16.548Z" fill="#FFB703"/>
<path d="M25.8778 17.9208C29.9521 19.3488 18.5779 41.7001 17.6518 41.3762C16.7256 41.0523 21.2515 16.2966 25.8778 17.9208Z" fill="#FFB703"/>
<path d="M31.1883 26.9869C34.5691 29.6696 16.511 47.0752 15.7446 46.4638C14.9781 45.857 27.3468 23.9392 31.1883 26.9869Z" fill="#FFB703"/>
<path d="M12.4916 39.7801C12.2361 39.1276 14.9006 37.2935 17.6928 37.4806C20.485 37.6722 22.7753 40.3504 22.4423 40.8249C19.7002 44.7805 17.1316 52.5047 16.2145 52.5503C14.709 52.6324 14.7546 45.5743 12.4916 39.7801Z" fill="#455A64"/>
<path d="M39.4692 48.5757C36.6177 47.0747 30.1801 64.6674 30.828 65.0095C31.4758 65.3472 42.7085 50.2821 39.4692 48.5757Z" fill="#FFB703"/>
<path d="M33.2277 43.475C30.0249 43.11 30.3853 61.8342 31.1153 61.9209C31.8453 62.003 36.8685 43.8902 33.2277 43.475Z" fill="#FFB703"/>
<path d="M25.5401 43.9766C22.4331 44.8343 29.7695 62.0666 30.4766 61.875C31.1793 61.6788 29.0714 43.0048 25.5401 43.9766Z" fill="#FFB703"/>
<path d="M21.1191 50.4602C18.4638 52.2852 31.0332 66.1732 31.6355 65.758C32.2377 65.3474 24.1394 48.3843 21.1191 50.4602Z" fill="#FFB703"/>
<path d="M34.4004 60.9443C34.624 60.4698 32.7306 58.9688 30.641 58.9688C28.5514 58.9688 26.7082 60.8485 26.9318 61.218C28.775 64.3022 30.2943 70.1877 30.9741 70.2699C32.0964 70.4113 32.4204 65.1463 34.4004 60.9443Z" fill="#455A64"/>
<path d="M16.5201 48.2388C16.1415 51.802 16.1597 55.4018 16.6753 58.9148C16.9308 60.6668 17.2638 62.4142 17.8022 64.0886C18.0349 64.9372 18.3679 65.7539 18.6736 66.5751C18.8105 66.9903 19.034 67.3736 19.2074 67.775C19.4036 68.1674 19.5587 68.578 19.7868 68.9522C21.4111 72.0455 23.8702 74.5959 26.5073 76.9592C29.1444 79.3317 31.9639 81.5444 34.6968 83.8941C37.4115 86.262 40.0759 88.7713 42.3115 91.6776C43.4202 93.133 44.4193 94.6888 45.2451 96.3403C45.4504 96.751 45.6329 97.1753 45.8291 97.595C46.007 98.0193 46.1713 98.4527 46.3401 98.8816L46.769 100.196L47.1248 101.505C48.0647 105 48.7262 108.572 48.9817 112.176C49.1186 113.979 49.1369 115.785 49.073 117.583C49.0046 119.381 48.8403 121.183 48.4434 122.935C48.8358 119.371 48.6761 115.781 48.197 112.254C48.0966 111.369 47.9324 110.493 47.8001 109.617C47.6221 108.746 47.4853 107.865 47.2708 107.003C47.0655 106.136 46.8876 105.269 46.6412 104.411L46.299 103.125L45.9112 101.852C45.4231 100.127 44.8026 98.5349 43.9859 96.9791C43.1738 95.437 42.1974 93.9816 41.107 92.6129C38.9353 89.8572 36.3438 87.4299 33.6429 85.1122C30.9602 82.7672 28.1406 80.5453 25.4807 78.0815C24.1576 76.8451 22.871 75.5494 21.6939 74.1442C21.3974 73.7974 21.1191 73.4279 20.8362 73.0675C20.5716 72.6888 20.2841 72.3283 20.0423 71.936C19.5176 71.1695 19.1207 70.3346 18.6782 69.5316C18.4546 69.1301 18.304 68.6921 18.1124 68.2769C17.9436 67.8526 17.7246 67.442 17.5969 67.004C17.3049 66.1371 16.9901 65.2748 16.7984 64.3806C16.3285 62.615 16.0685 60.8128 15.9042 59.0106C15.7445 57.2039 15.7628 55.3926 15.8495 53.5951C15.9361 51.7838 16.1369 49.9907 16.5201 48.2388Z" fill="#455A64"/>
<path d="M30.0296 63.5225C30.5132 65.7124 30.9877 67.8659 31.4941 70.0102C31.7633 71.0778 32.0005 72.15 32.3016 73.2039C32.5708 74.267 32.8765 75.3163 33.1868 76.3657C33.8346 78.4507 34.5372 80.5129 35.3676 82.5341C36.239 84.537 37.2245 86.476 38.3879 88.4013C36.7089 86.9094 35.3493 85.0571 34.2315 83.0861C33.1548 81.0923 32.2971 78.9891 31.6355 76.8356C31.0059 74.6685 30.5314 72.4648 30.2531 70.2383C29.9794 68.0119 29.8425 65.7672 30.0296 63.5225Z" fill="#455A64"/>
<path d="M298.007 51.9072C294.718 49.115 281.168 70.2162 281.916 70.8504C282.664 71.4891 301.749 55.0827 298.007 51.9072Z" fill="#FFB703"/>
<path d="M291.346 43.4167C287.268 42.0023 282.267 66.5755 283.193 66.8995C284.124 67.2188 295.982 45.0272 291.346 43.4167Z" fill="#FFB703"/>
<path d="M281.154 41.8289C276.843 42.0388 281.391 66.7032 282.372 66.6576C283.349 66.6074 286.05 41.5871 281.154 41.8289Z" fill="#FFB703"/>
<path d="M273.485 49.0096C269.479 50.6201 281.843 72.4376 282.755 72.0726C283.663 71.7076 278.033 47.18 273.485 49.0096Z" fill="#FFB703"/>
<path d="M287.774 66.5889C288.203 66.0369 286.173 63.5184 283.44 62.9071C280.707 62.2957 277.751 64.2119 277.933 64.764C279.439 69.3355 279.703 77.4703 280.57 77.776C281.994 78.2824 283.96 71.4981 287.774 66.5889Z" fill="#455A64"/>
<path d="M286.88 76.5122C289.831 77.8033 280.109 93.8129 279.438 93.5209C278.763 93.2243 283.522 75.0431 286.88 76.5122Z" fill="#FFB703"/>
<path d="M294.759 78.2008C297.045 80.4729 282.19 91.8835 281.669 91.368C281.149 90.8479 292.163 75.6185 294.759 78.2008Z" fill="#FFB703"/>
<path d="M299.166 84.5196C300.435 87.4806 282.395 92.513 282.103 91.8377C281.815 91.167 297.724 81.1525 299.166 84.5196Z" fill="#FFB703"/>
<path d="M296.862 92.0192C297.095 95.2357 278.398 94.0859 278.343 93.356C278.289 92.626 296.598 88.3647 296.862 92.0192Z" fill="#FFB703"/>
<path d="M280.378 88.1925C280.606 87.7225 282.965 88.2609 284.27 89.8943C285.575 91.5276 285.255 94.1419 284.827 94.2012C281.268 94.6894 275.72 97.1759 275.232 96.6968C274.424 95.903 278.334 92.3625 280.378 88.1925Z" fill="#455A64"/>
<path d="M281.505 73.5508C280.853 77.0775 279.813 80.5176 278.321 83.7432C277.577 85.3492 276.76 86.9278 275.77 88.3832C275.305 89.1314 274.757 89.8204 274.228 90.5184C273.977 90.8788 273.658 91.18 273.375 91.513C273.078 91.8324 272.809 92.1837 272.485 92.4757C270.049 94.9759 266.965 96.7279 263.767 98.238C260.564 99.7619 257.233 101.085 253.944 102.559C250.668 104.06 247.401 105.702 244.431 107.856C242.953 108.937 241.552 110.141 240.293 111.492C239.978 111.829 239.682 112.181 239.376 112.528C239.084 112.883 238.806 113.253 238.523 113.613L237.738 114.754L237.026 115.908C235.133 118.992 233.481 122.227 232.213 125.613C231.57 127.301 231.04 129.03 230.589 130.773C230.142 132.515 229.79 134.29 229.672 136.083C230.31 132.552 231.483 129.158 232.947 125.914C233.294 125.097 233.7 124.299 234.079 123.496C234.499 122.711 234.882 121.908 235.329 121.141C235.772 120.37 236.191 119.586 236.666 118.837L237.359 117.701L238.094 116.588C239.052 115.073 240.101 113.723 241.324 112.464C242.538 111.218 243.893 110.1 245.325 109.097C248.19 107.075 251.366 105.483 254.614 104.023C257.854 102.536 261.189 101.208 264.437 99.6022C266.057 98.7946 267.658 97.9187 269.191 96.9012C269.575 96.6503 269.944 96.3766 270.323 96.1119C270.683 95.8245 271.062 95.5599 271.409 95.2542C272.13 94.6702 272.745 93.9813 273.402 93.338C273.731 93.0141 274 92.6399 274.301 92.2932C274.584 91.9328 274.908 91.6043 275.159 91.2165C275.684 90.4682 276.231 89.7337 276.674 88.9307C277.627 87.3749 278.389 85.7142 279.06 84.0352C279.726 82.3471 280.223 80.6088 280.652 78.8569C281.058 77.1186 281.373 75.3438 281.505 73.5508Z" fill="#455A64"/>
<path d="M281.095 93.2197C279.083 94.2098 277.102 95.1816 275.109 96.126C274.105 96.5822 273.124 97.0704 272.111 97.4901C271.112 97.9464 270.104 98.3616 269.091 98.7722C267.056 99.566 265.008 100.305 262.913 100.917C260.806 101.487 258.675 101.925 256.444 102.217C258.657 102.6 260.956 102.504 263.187 102.144C265.414 101.742 267.594 101.099 269.693 100.269C271.778 99.4064 273.795 98.4072 275.711 97.2301C277.618 96.0575 279.457 94.7618 281.095 93.2197Z" fill="#455A64"/>
<path d="M49.4287 95.7518C50.2226 97.9463 50.0629 100.647 49.9625 102.933C49.853 105.556 49.52 108.152 49.0501 110.735C48.6166 113.139 48.0646 115.516 47.4715 117.875C47.4669 117.898 47.4578 117.921 47.4532 117.939C47.4167 118.094 47.3756 118.249 47.3346 118.404C47.3118 118.596 47.289 118.787 47.2525 118.984C47.2433 119.043 47.1977 119.075 47.1521 119.084C47.0882 119.093 47.0243 119.061 47.0335 118.975C47.0426 118.87 47.0563 118.76 47.0654 118.66C47.4486 114.225 44.8937 110.178 44.7386 105.78C44.6564 103.371 45.2359 100.958 45.683 98.6079C45.9294 97.3076 45.9932 95.6195 46.4997 94.3922C46.632 94.0683 46.6639 93.717 47.0289 93.5436C48.1467 93.0235 49.1504 94.9853 49.4287 95.7518Z" fill="#263238"/>
<path d="M48.3795 97.3941C47.6814 96.8193 47.2708 98.4116 47.1385 98.845C46.226 101.774 45.715 105.26 46.2351 108.294C46.8054 111.624 47.4077 114.959 47.1613 118.336C47.1294 118.445 47.0974 118.555 47.0655 118.664C47.0564 118.769 47.0472 118.874 47.0335 118.979C47.0244 119.061 47.0883 119.098 47.1522 119.088C47.1613 119.02 47.175 118.956 47.1841 118.888C47.2799 118.573 47.3712 118.258 47.4533 117.939C47.4578 117.916 47.467 117.893 47.4715 117.875C48.051 115.616 48.3156 113.249 48.6395 110.963C49.0958 107.728 49.4197 104.448 49.1596 101.181C49.1003 100.392 49.0045 99.6069 48.8631 98.8267C48.7946 98.4389 48.7216 97.6724 48.3795 97.3941ZM48.7718 99.3697C48.8996 100.195 48.9817 101.021 49.0273 101.856C49.1824 104.726 48.9133 107.605 48.5254 110.447C48.197 112.874 47.9278 115.407 47.3027 117.811C47.4578 115.895 47.3301 113.965 47.0563 112.044C46.8556 110.602 46.5545 109.188 46.3401 107.751C46.0937 106.127 46.2716 104.53 46.5134 102.91C46.7324 101.432 46.9332 99.8259 47.4852 98.4252C47.5993 98.1424 47.9232 97.5082 48.1696 97.5493C48.603 97.6314 48.7216 99.0457 48.7718 99.3697Z" fill="#455A64"/>
<path d="M29.5093 129.627C29.5138 129.623 29.5047 129.614 29.5002 129.618L29.5093 129.627Z" fill="#263238"/>
<path d="M47.2708 160.265C47.3255 160.301 47.3347 160.347 47.321 160.397V160.402C47.3119 160.443 47.2754 160.479 47.2297 160.489C47.2024 160.493 47.1704 160.493 47.1385 160.475C44.4238 159.102 41.8324 156.921 38.6889 156.761C36.2297 156.633 34.1173 156.939 31.7814 155.931C29.4272 154.918 27.26 153.335 25.5309 151.446C24.737 150.579 24.0253 149.63 23.4002 148.631C23.1037 148.152 22.1319 146.952 22.2687 146.336C22.9029 143.452 31.462 148.585 32.5981 149.274C37.6304 152.335 42.754 155.78 46.956 159.941C46.9697 159.955 46.9742 159.973 46.9697 159.987C46.9651 160.005 46.956 160.023 46.9377 160.037C47.0472 160.11 47.1567 160.183 47.2708 160.265Z" fill="#263238"/>
<path d="M47.2709 160.265C47.1614 160.183 47.0474 160.11 46.9379 160.037C46.9561 160.028 46.9653 160.01 46.9698 159.987C44.1868 157.875 41.2349 155.958 38.2739 154.115C35.0893 152.14 31.8317 150.114 28.4099 148.567C27.9445 148.357 25.9964 147.189 25.5903 147.947C25.198 148.672 27.2054 150.429 27.6343 150.812C30.171 153.084 33.4833 154.124 36.6861 155.06C38.7666 155.671 40.8106 156.255 42.672 157.405C44.2369 158.367 45.6832 159.508 47.2344 160.484C47.2801 160.475 47.3166 160.439 47.3257 160.398C46.5318 159.891 45.7654 159.335 44.9989 158.787C45.7745 159.321 46.5501 159.855 47.3257 160.389C47.3348 160.347 47.3257 160.297 47.2709 160.265ZM40.2585 155.977C37.1424 154.758 33.7981 154.229 30.8006 152.692C29.3635 151.957 28.013 151.022 26.9271 149.817C26.7173 149.589 25.7044 148.572 25.9325 148.166C26.0876 147.897 26.8952 148.143 27.0138 148.189C27.9035 148.517 28.7612 148.914 29.6007 149.343C32.5343 150.839 35.3813 152.532 38.178 154.266C39.7293 155.228 41.2486 156.232 42.7587 157.259C41.9649 156.766 41.1391 156.323 40.2585 155.977Z" fill="#455A64"/>
<path d="M34.8884 100.551C35.226 103.151 34.7013 105.871 33.9942 108.375C32.3471 114.165 29.1717 119.549 28.1634 125.521C28.1223 125.758 28.0858 125.991 28.0539 126.224C28.1086 126.534 28.0676 126.456 27.9672 126.096C27.9672 126.096 27.9626 126.096 27.9626 126.091C27.5246 124.504 26.0145 117.5 26.708 112.472C27.1414 109.338 28.2227 106.377 29.304 103.416C29.9245 101.728 30.5267 100.035 31.1609 98.3563C31.3662 97.818 31.6491 96.2759 32.4657 96.1572C34.0489 95.9246 34.7561 99.5334 34.8884 100.551Z" fill="#263238"/>
<path d="M32.1509 101.075C31.8635 100.934 31.6445 101.029 31.4483 101.258C31.2293 101.522 31.1882 101.974 31.1061 102.284C30.9464 102.9 30.7868 103.511 30.6271 104.127C29.5321 108.366 28.0539 112.7 27.6478 117.076C27.3786 119.977 27.5292 122.911 27.9626 125.808C27.9626 125.904 27.9672 126 27.9672 126.091C27.9626 126.095 27.9717 126.095 27.9717 126.095C28.0721 126.46 28.1132 126.533 28.0584 126.223C28.0904 125.99 28.1269 125.753 28.1679 125.521C28.1679 125.197 28.177 124.868 28.1999 124.54C28.3367 122.277 28.9846 120.105 29.6826 117.961C30.9966 113.882 32.1646 109.73 32.671 105.464C32.776 104.52 32.8763 103.539 32.7668 102.59C32.7167 102.156 32.6117 101.303 32.1509 101.075ZM32.5342 102.444C32.5707 102.658 32.5889 102.859 32.598 103.078C32.6208 103.53 32.5935 103.981 32.5661 104.433C32.4885 105.523 32.3197 106.6 32.1281 107.677C31.4529 111.519 30.3168 115.191 29.1625 118.91C28.5922 120.744 28.1177 122.61 27.9991 124.54C27.8394 122.929 27.7527 121.314 27.7573 119.708C27.771 115.574 28.9253 111.664 29.9427 107.691C30.1982 106.71 30.4491 105.724 30.7046 104.743C30.8278 104.251 30.9556 103.758 31.0833 103.27L31.2704 102.531C31.3936 102.038 31.3206 101.832 31.8726 101.677C32.5478 101.486 32.4383 101.869 32.5342 102.444Z" fill="#455A64"/>
<path d="M39.013 124.769C39.7293 126.695 40.2585 128.688 40.5961 130.714C41.2714 134.779 40.6463 139.474 41.7139 143.525C41.8098 143.79 41.8964 144.059 41.9694 144.333C42.0014 144.433 42.0242 144.534 42.0516 144.639C42.0652 144.693 41.9786 144.725 41.9512 144.671C41.8691 144.497 41.7824 144.328 41.6911 144.155C41.6866 144.151 41.6911 144.151 41.6866 144.146C41.6455 144.055 41.5953 143.963 41.5497 143.877C39.5331 139.935 36.9508 136.331 36.093 131.905C35.5638 129.181 34.7198 121.671 36.5173 121.101C37.3203 120.841 38.575 123.601 39.013 124.769Z" fill="#263238"/>
<path d="M37.3796 125.166C36.9507 125.367 36.9644 126.206 36.937 126.562C36.8686 127.47 36.9507 128.451 37.0374 129.364C37.1925 131.097 37.5803 132.799 38.0503 134.469C38.9491 137.658 40.076 140.884 41.5496 143.877C41.5907 143.968 41.6409 144.059 41.6865 144.146C41.6911 144.15 41.6865 144.15 41.6911 144.155C41.7823 144.328 41.8644 144.497 41.9511 144.67C41.9739 144.721 42.0606 144.693 42.0515 144.638C42.0287 144.538 42.0013 144.438 41.9694 144.333C40.6463 140.861 40.0897 137.211 39.6289 133.515C39.5285 132.68 38.8532 124.468 37.3796 125.166ZM38.7209 128.497C38.8487 129.272 38.9582 130.048 39.0586 130.828C39.3004 132.644 39.5057 134.469 39.7703 136.28C40.0623 138.251 40.4318 140.231 41.0067 142.147C40.0942 139.953 39.2319 137.745 38.543 135.45C38.0959 133.944 37.6898 132.425 37.4298 130.878C37.2929 130.039 37.1971 129.19 37.1697 128.337C37.1515 127.931 36.9781 125.577 37.4663 125.376C38.0731 125.13 38.6662 128.164 38.7209 128.497Z" fill="#455A64"/>
<path d="M56.1855 116.747C57.1801 117.97 56.7102 120.402 56.1718 121.684C55.4008 123.522 54.0001 124.964 52.458 126.182C50.2224 127.952 47.7222 129.317 45.838 131.502C43.9674 133.665 44.5696 133.012 43.2602 135.786C43.2374 135.841 43.1826 135.841 43.1416 135.795C43.0777 135.731 43.0275 135.576 43.0595 135.353C43.0595 135.33 43.0686 135.302 43.0731 135.28C44.2776 130.722 46.6181 127.131 49.7206 123.572C51.4817 121.556 52.5447 119.001 54.3743 117.053C55.0495 116.332 55.5012 115.903 56.1855 116.747Z" fill="#263238"/>
<path d="M55.1362 119.143C54.4655 118.823 53.6215 120.187 53.2747 120.68C52.2801 122.108 51.3083 123.527 50.0719 124.754C48.9769 125.831 47.8865 126.885 46.9421 128.099C45.5049 129.946 44.3552 132.013 43.5431 134.203C43.3652 134.573 43.2009 134.956 43.0549 135.348C43.0184 135.572 43.0732 135.727 43.137 135.791C43.1553 135.741 43.169 135.691 43.1872 135.64C44.2822 132.711 46.1437 130.462 48.7123 128.514C51.2673 126.579 53.6762 124.426 55.0404 121.456C55.2868 120.936 55.7521 119.444 55.1362 119.143ZM55.0267 121.082C54.8077 121.593 54.5522 122.09 54.2648 122.569C53.7447 123.436 53.1333 124.243 52.4581 124.996C51.2582 126.328 49.8529 127.414 48.4295 128.496C46.755 129.773 45.2905 131.251 44.2138 132.98C45.0441 131.133 46.0935 129.385 47.3847 127.798C48.539 126.388 49.9442 125.243 51.1304 123.874C51.6733 123.24 52.157 122.56 52.6406 121.885C52.9006 121.515 53.1561 121.146 53.4162 120.776C53.6443 120.447 54.3789 119.284 54.867 119.38C55.5012 119.498 55.118 120.876 55.0267 121.082Z" fill="#455A64"/>
<path d="M14.4076 105.238C18.4408 109.791 22.1865 114.577 25.7543 119.5C25.7999 119.564 25.7954 119.637 25.7589 119.691C25.7543 119.705 25.7498 119.714 25.7406 119.723C25.7634 119.755 25.7863 119.787 25.8045 119.819C25.8273 119.856 25.8136 119.892 25.7817 119.915C25.7726 119.919 25.768 119.924 25.7589 119.924C25.7543 119.929 25.7498 119.929 25.7498 119.929C25.7269 119.933 25.6996 119.929 25.6768 119.91C23.1629 117.447 20.7995 115.138 17.6332 113.509C14.7361 112.022 11.8846 110.781 9.37068 108.668C7.22634 106.857 1.13551 97.9149 2.13012 95.7842C2.80536 94.3334 11.1956 101.62 14.4076 105.238Z" fill="#263238"/>
<path d="M9.41644 102.194C8.89176 101.688 7.34967 99.685 6.36418 100.091C5.3787 100.502 6.94817 102.518 7.24017 102.947C8.3169 104.512 9.4575 106.05 10.8262 107.382C12.1858 108.709 13.8009 109.585 15.375 110.621C19.2393 113.181 22.652 116.502 25.759 119.915C25.759 119.915 25.7636 119.915 25.7681 119.91C25.7773 119.906 25.7818 119.901 25.791 119.901C25.8183 119.878 25.8366 119.846 25.8138 119.805C25.7955 119.773 25.7727 119.741 25.7499 119.709C25.759 119.7 25.7636 119.691 25.7681 119.678C20.8909 113.359 15.124 107.747 9.41644 102.194ZM25.4168 119.49C23.2999 117.118 20.9959 114.855 18.555 112.816C15.7126 110.434 12.2771 108.901 9.81794 106.072C8.64539 104.726 7.3816 103.207 6.59231 101.601C6.48281 101.387 6.08588 100.657 6.35506 100.369C6.59231 100.114 7.29036 100.433 8.15722 101.227C8.87351 101.889 9.55788 102.591 10.2559 103.276C13.0071 105.963 15.74 108.659 18.3816 111.456C20.8316 114.043 23.1767 116.721 25.4168 119.49Z" fill="#455A64"/>
<path d="M31.1835 138.606C31.1881 138.629 31.1835 138.652 31.1699 138.675C31.147 138.725 31.0969 138.761 31.0376 138.743C30.9098 138.698 30.7821 138.661 30.6543 138.62C30.6452 138.629 30.6361 138.629 30.6224 138.629C27.7389 138.26 25.3984 138.748 22.6245 139.455C20.5577 139.984 18.4544 139.952 16.3831 139.446C14.1384 138.898 12.0351 137.84 10.0915 136.603C9.29763 136.097 6.76549 134.961 7.18067 133.569C7.86047 131.284 15.5481 134.258 16.8758 134.692C19.2574 135.463 21.6162 136.147 24.0753 136.622C26.4843 137.087 28.8978 137.484 31.1379 138.529C31.1699 138.547 31.1881 138.574 31.1835 138.606Z" fill="#263238"/>
<path d="M29.655 138.26C29.6504 138.256 29.655 138.256 29.655 138.256C28.2634 137.936 26.8719 137.562 25.4712 137.316C23.8972 137.042 22.2912 137.074 20.7081 136.805C17.7516 136.294 14.9412 135.217 12.0167 134.569C11.638 134.487 10.8852 134.336 11.0859 134.984C11.1681 135.267 11.5787 135.495 11.7885 135.646C12.4364 136.111 13.1299 136.508 13.8508 136.855C16.2871 138.018 19.1112 138.867 21.8304 138.744C24.9831 138.598 28.0536 138.005 31.1697 138.675C31.1834 138.652 31.188 138.63 31.1834 138.607C30.6861 138.447 30.1705 138.338 29.655 138.26ZM22.825 138.452C19.4169 138.721 15.8673 137.836 12.9063 136.116C12.628 135.951 11.8889 135.482 11.6334 135.267C11.3916 135.062 11.0403 134.628 11.9665 134.747C12.1855 134.774 12.3953 134.847 12.6098 134.902C13.3671 135.089 14.1154 135.299 14.8636 135.514C16.465 135.97 18.0573 136.449 19.6861 136.791C21.1369 137.097 22.5878 137.22 24.066 137.311C25.8499 137.421 27.5973 137.84 29.3447 138.214C27.1958 137.95 24.9739 138.278 22.825 138.452Z" fill="#455A64"/>
<path d="M22.8755 132.355C22.8892 132.397 22.8892 132.447 22.88 132.488C22.8755 132.511 22.8664 132.533 22.8572 132.556C22.8435 132.584 22.8253 132.606 22.8071 132.629C22.8025 132.638 22.7934 132.647 22.7888 132.647C22.7386 132.684 22.6656 132.702 22.5835 132.666C22.1501 132.506 21.744 132.319 21.3562 132.109C16.5793 130.289 11.6839 128.363 7.79669 124.992C5.81204 123.267 4.09201 121.264 2.6001 119.102C1.86555 118.043 -0.146478 115.821 0.519635 114.334C1.1675 112.892 2.4906 113.805 3.38483 114.411C5.70254 115.972 7.97006 117.628 10.0733 119.462C12.1675 121.287 14.029 123.308 15.6669 125.544C17.6196 128.213 19.4947 130.978 22.7204 132.187C22.807 132.219 22.8572 132.282 22.8755 132.355Z" fill="#263238"/>
<path d="M14.0516 125.603C11.3689 122.743 8.38509 120.133 5.31915 117.696C4.92222 117.377 3.77249 116.56 3.59456 117.477C3.38468 118.559 4.98153 119.832 5.59289 120.475C7.9106 122.916 10.3789 125.229 13.0661 127.259C16.0636 129.527 19.2984 131.361 22.8571 132.556C22.8708 132.533 22.8753 132.515 22.8799 132.488C17.0947 130.344 12.0807 126.584 7.70529 122.295C6.65137 121.26 5.58377 120.215 4.6211 119.097C4.46598 118.919 3.58087 117.71 3.92761 117.382C4.22873 117.094 5.47427 118.08 5.62483 118.207C6.32288 118.782 7.01637 119.362 7.70986 119.946C10.315 122.154 12.7148 124.508 15.069 126.976C17.3366 129.349 19.8824 131.201 22.889 132.483C22.9027 132.438 22.8981 132.392 22.8845 132.351C19.3714 130.813 16.6659 128.386 14.0516 125.603Z" fill="#455A64"/>
<path d="M14.0929 82.6713C15.6989 84.875 17.0996 87.1927 17.866 89.8297C19.0295 93.8629 18.961 98.0832 19.5404 102.212C19.5404 102.23 19.545 102.244 19.545 102.258C19.7001 103.376 19.9054 104.489 20.202 105.588C20.2613 105.821 20.3252 106.058 20.3982 106.291C20.4164 106.35 20.4027 106.4 20.3754 106.437C20.348 106.46 20.3161 106.478 20.2796 106.487C20.2476 106.496 20.2111 106.496 20.1792 106.483L20.1746 106.478C20.129 106.464 20.0834 106.428 20.0606 106.369C19.9419 106.035 19.8416 105.702 19.7412 105.369C19.7184 105.365 19.7047 105.351 19.691 105.324C17.2273 100.173 14.426 94.9625 11.6292 89.8662C10.3928 87.6078 9.23851 85.2719 8.44465 82.8173C7.97016 81.3665 7.39529 79.1263 8.45377 77.785C8.51765 77.6983 8.61802 77.6162 8.73664 77.6344C11.0726 78.0313 12.8154 80.9285 14.0929 82.6713Z" fill="#263238"/>
<path d="M11.5153 82.9993C10.3975 82.6388 10.6256 83.9574 10.8081 84.6281C11.2872 86.3937 12.081 88.1274 12.7745 89.8338C13.5547 91.7546 14.3668 93.6662 15.2063 95.5642C16.7894 99.1457 18.9976 102.709 20.1702 106.464C20.1702 106.468 20.1748 106.473 20.1748 106.482L20.1793 106.487C20.2113 106.5 20.2478 106.496 20.2797 106.491C20.3162 106.487 20.3481 106.468 20.3755 106.441C20.3162 106.158 20.2614 105.88 20.2021 105.597C19.9786 104.488 19.7641 103.375 19.5451 102.266C19.5451 102.253 19.536 102.234 19.5406 102.221C18.4821 96.8736 17.3232 91.5766 14.5128 86.672C13.8604 85.5269 12.8886 83.4373 11.5153 82.9993ZM14.855 87.6712C16.5203 90.7736 17.6335 94.0768 18.4 97.4621C19.0113 100.168 19.4265 102.905 19.9877 105.615C19.2121 103.439 18.076 101.368 17.0951 99.2552C15.5576 95.9429 14.1022 92.594 12.738 89.2087C12.4095 88.3966 12.0856 87.5799 11.7708 86.7587C11.4879 86.0333 10.8902 84.9018 10.8857 84.1079C10.8811 82.5704 12.1631 83.6152 12.5829 84.0669C12.9479 84.4638 13.2353 84.9292 13.5227 85.3809C13.9972 86.1337 14.4398 86.9001 14.855 87.6712Z" fill="#455A64"/>
<path d="M48.1695 110.469C47.4669 115.538 46.4997 120.424 45.1219 125.352C43.8672 129.836 42.5669 134.321 41.9555 138.948C41.148 145.093 41.7 151.827 44.8344 157.17C39.6013 151.106 35.5043 144.094 32.4976 136.543C27.4516 123.869 22.8755 110.839 16.7482 98.6249C16.6478 98.4196 16.3649 98.5793 16.4425 98.7801C18.9564 105.446 21.9037 111.952 24.4769 118.599C27.0273 125.201 29.3998 131.885 32.0688 138.441C32.3562 139.148 32.6573 139.851 32.9676 140.544C29.053 135.695 23.3181 132.122 17.688 130.051C17.615 130.024 17.5877 130.133 17.6515 130.16C21.6528 131.921 25.3027 134.417 28.5101 137.378C31.3114 139.965 33.4466 142.958 35.705 145.983C40.8058 155.062 47.9277 162.595 57.007 168.216C57.1028 168.275 57.1895 168.133 57.0982 168.07C53.4848 165.642 50.2044 162.864 47.2434 159.798C42.2065 153.132 41.9692 144.231 43.4748 136.146C44.2641 131.903 45.3865 127.742 46.3902 123.549C47.4076 119.297 48.5209 114.872 48.4159 110.469C48.4022 110.323 48.1878 110.314 48.1695 110.469Z" fill="#263238"/>
<path d="M258.339 31.1167L36.467 44.7656L45.0993 185.089L266.972 171.441L258.339 31.1167Z" fill="#FFB703"/>
<path d="M50.7017 178.76L42.7996 50.3641L252.744 37.4434L252.757 37.6715L260.646 165.839L260.418 165.853L50.7017 178.76ZM43.2832 50.793L51.1305 178.281L260.162 165.415L252.315 37.927L43.2832 50.793Z" fill="white"/>
<path d="M81.7944 101.855L81.6803 102.503C81.6894 102.627 81.7487 102.731 81.8674 102.827C81.986 102.923 82.1229 102.964 82.2871 102.955C82.4468 102.946 82.5745 102.855 82.6658 102.686C85.4397 98.4838 87.7255 94.7974 89.5277 91.622C91.3253 88.4465 92.6438 86.1151 93.4787 84.6141C94.3136 83.1176 94.9752 81.9268 95.4725 81.0417C96.7956 78.7194 98.1233 76.6344 99.4555 74.7821C94.0673 76.4975 89.8197 77.4511 86.7172 77.6427C83.6148 77.8343 81.3701 77.775 79.9877 77.4602C78.6052 77.15 77.6836 76.7576 77.2274 76.2877C76.7711 75.8177 76.5293 75.325 76.4974 74.8049C76.4655 74.2893 76.4563 73.7829 76.4655 73.2947C76.4837 72.2773 77.0449 71.4059 78.1536 70.6896C79.2577 69.9687 80.1884 69.5855 80.9366 69.5398C81.6849 69.4942 82.0681 69.5809 82.0818 69.8045C82.0955 70.028 81.9449 70.3383 81.6347 70.7306C81.3244 71.1276 81.1693 71.3968 81.1784 71.5382C81.2195 72.1861 83.5828 72.3686 88.2639 72.0811C92.9495 71.7937 98.2921 70.8447 104.301 69.2342C107.613 66.1819 110.538 64.5759 113.074 64.4208C114.758 64.3159 115.903 64.7265 116.51 65.6435C116.911 66.191 117.126 66.7477 117.162 67.3134C117.199 67.8791 116.902 68.4677 116.277 69.079C115.652 69.6858 114.794 70.2288 113.704 70.7033C111.719 71.5564 109.365 72.2819 106.632 72.8795C105.569 74.4308 104.073 76.8352 102.143 80.0882C100.217 83.3412 98.9034 85.5403 98.1963 86.6809C97.4936 87.8215 96.3713 89.8472 94.8292 92.7489C93.2871 95.6506 91.9503 98.1599 90.8188 100.277C89.6873 102.394 88.4738 104.488 87.1735 106.564C84.5273 110.839 82.0681 113.047 79.796 113.184C78.8425 113.243 78.0076 113.038 77.2867 112.577C76.5658 112.112 76.1689 111.309 76.1005 110.164C76.032 109.018 76.575 107.549 77.7384 105.756C78.9018 103.963 79.7595 102.809 80.3207 102.284C80.8773 101.76 81.2606 101.495 81.4613 101.481C81.6666 101.468 81.7761 101.595 81.7944 101.855Z" fill="white"/>
<path d="M129.59 99.6153C129.791 100.541 129.905 101.271 129.937 101.805C129.969 102.344 129.901 102.814 129.736 103.224C129.567 103.63 129.175 104.214 128.564 104.976C127.948 105.738 127.209 106.509 126.342 107.294C124.22 109.196 121.994 110.218 119.662 110.36C116.318 110.565 114.553 109.187 114.37 106.226C114.21 103.653 116.136 98.3835 120.146 90.4221C120.292 90.1301 120.388 89.9202 120.443 89.7924C118.951 90.9832 116.145 94.1541 112.039 99.3005C107.928 104.451 105.204 108.083 103.872 110.2C103.762 110.392 103.47 110.611 102.996 110.866C102.521 111.117 102.152 111.254 101.874 111.272C101.6 111.291 101.303 111.222 100.975 111.067C100.651 110.912 100.446 110.839 100.363 110.843C100.099 110.862 99.962 110.78 99.9528 110.611C99.9437 110.437 100.245 109.484 100.861 107.746C101.477 106.007 102.293 103.845 103.315 101.258C106.112 94.1222 110.351 84.8057 116.035 73.3039C118.025 69.2752 119.599 66.41 120.757 64.7083C121.579 63.4992 123.043 62.8285 125.151 62.6962C125.598 62.6689 125.858 62.7875 125.936 63.043C126.013 63.303 126.059 63.5859 126.082 63.887C126.1 64.1927 126.059 64.4984 125.954 64.8086L123.011 70.0874C117.181 80.5444 112.837 89.1765 109.981 95.9882C112.906 91.9413 115.798 88.7796 118.65 86.5075C120.415 85.0749 121.757 84.3312 122.678 84.2765C123.6 84.2217 124.444 84.3175 125.215 84.5639C125.981 84.8103 126.401 85.4946 126.47 86.6079C126.492 87.0139 125.927 88.556 124.768 91.2296C121.291 99.2595 119.58 103.703 119.635 104.566C119.69 105.428 120.069 105.838 120.78 105.793C121.816 105.729 123.344 104.629 125.37 102.49C126.898 100.87 127.861 99.8343 128.263 99.3826C128.495 99.1865 128.71 99.0815 128.915 99.0678C129.298 99.0541 129.526 99.2366 129.59 99.6153Z" fill="white"/>
<path d="M149.647 84.1858C151.189 84.09 151.992 84.569 152.056 85.623C152.092 86.1887 151.983 86.613 151.736 86.8959C151.49 87.1742 150.979 88.0867 150.208 89.6288C149.437 91.1709 148.602 93.1373 147.698 95.5234C146.795 97.9096 146.243 99.9353 146.042 101.596C145.992 101.801 145.983 102.089 146.001 102.454C146.07 103.572 146.407 104.11 147.019 104.069C147.625 104.032 148.328 103.699 149.126 103.07C149.92 102.44 150.623 101.778 151.234 101.076C151.841 100.378 152.434 99.6661 153.009 98.9361C153.584 98.2107 153.931 97.7909 154.045 97.6814C154.159 97.5719 154.341 97.5126 154.583 97.4944C154.966 97.4716 155.222 97.7499 155.336 98.3339C155.455 98.9179 155.532 99.5247 155.569 100.15C155.605 100.779 155.573 101.217 155.468 101.468C154.953 102.659 153.744 104.128 151.846 105.876C149.948 107.618 148.182 108.545 146.553 108.645C144.92 108.745 143.688 108.321 142.858 107.377C142.027 106.432 141.571 105.355 141.498 104.146C141.425 102.942 141.562 101.87 141.909 100.93C140.362 103.225 138.542 105.196 136.457 106.852C134.372 108.508 132.638 109.375 131.26 109.462C129.882 109.548 128.728 109.202 127.806 108.421C126.629 107.454 125.981 106.058 125.867 104.219C125.753 102.385 126.05 100.515 126.757 98.6076C127.464 96.7005 128.44 94.944 129.681 93.3289C130.927 91.7138 132.309 90.231 133.833 88.876C137.036 86.0336 140.056 84.5234 142.899 84.3501C143.994 84.2816 144.897 84.4094 145.609 84.7333C146.321 85.0572 146.786 85.4861 147 86.0199C147.443 85.258 147.826 84.7744 148.146 84.5599C148.479 84.3546 148.976 84.2269 149.647 84.1858ZM145.81 87.8129C142.342 88.0274 138.87 90.1717 135.398 94.2551C134.166 95.715 133.058 97.4442 132.068 99.438C131.082 101.432 130.608 102.787 130.653 103.494C130.699 104.206 130.922 104.548 131.328 104.521C131.894 104.484 133.409 103.266 135.868 100.866C138.327 98.4662 139.947 96.7142 140.736 95.6055C141.589 94.3691 143.282 91.7731 145.81 87.8129Z" fill="white"/>
<path d="M168.818 101.509C168.873 102.403 169.507 102.809 170.725 102.736C171.373 102.695 172.171 102.321 173.116 101.614C174.06 100.907 174.904 100.14 175.648 99.3189C177.628 97.1016 178.759 95.9838 179.042 95.9655C179.567 95.9336 179.877 96.6772 179.973 98.1965C180.069 99.7158 179.654 100.793 178.737 101.418C175.999 104.21 173.855 105.944 172.308 106.605C171.437 106.966 170.46 107.166 169.384 107.212C168.307 107.257 167.216 106.856 166.103 106.007C164.995 105.159 164.397 104.082 164.315 102.773C164.233 101.463 164.488 99.9576 165.077 98.2513C165.665 96.5449 166.281 95.0758 166.929 93.8485C167.577 92.6167 168.38 91.1841 169.333 89.5462C170.292 87.9083 170.789 86.8954 170.825 86.5076L170.761 86.4483C170.095 86.5487 168.521 87.9722 166.03 90.7096C163.544 93.4471 161.495 95.8241 159.889 97.8361C158.283 99.8481 156.381 102.522 154.186 105.852C153.57 106.765 153.05 107.235 152.626 107.262C152.202 107.289 151.618 107.184 150.883 106.956C150.148 106.728 149.692 106.555 149.523 106.445C149.355 106.336 149.263 106.158 149.245 105.912C149.231 105.67 149.282 105.364 149.405 104.999C149.523 104.634 149.642 104.333 149.761 104.091C149.879 103.849 150.075 103.475 150.349 102.969C150.623 102.462 151.161 101.399 151.969 99.7706C152.776 98.1418 154.013 95.71 155.687 92.4753C157.362 89.2359 158.361 87.2832 158.685 86.6126C159.374 85.2256 159.939 84.2127 160.391 83.5785C161.231 82.3649 162.736 81.6943 164.908 81.562C165.396 81.53 165.656 81.822 165.693 82.4288C165.752 83.3824 164.981 85.2301 163.379 87.9767L162.221 89.9705C165.487 85.8598 168.298 83.2136 170.647 82.0319C171.793 81.4525 172.837 81.1331 173.777 81.0738C174.722 81.0145 175.488 81.2243 176.077 81.6943C176.665 82.1688 176.98 82.7117 177.017 83.3322C177.053 83.9527 176.889 84.7055 176.515 85.5906C176.141 86.4802 175.757 87.2741 175.365 87.9813C174.973 88.6885 174.452 89.5781 173.805 90.6549C173.157 91.7316 172.81 92.3201 172.751 92.4159C172.696 92.5118 172.554 92.7627 172.326 93.1733C172.098 93.5839 171.925 93.885 171.815 94.0767C171.706 94.2683 171.523 94.5968 171.268 95.0713C171.012 95.5458 170.807 95.9381 170.652 96.2529C170.497 96.5678 170.31 96.9556 170.082 97.4164C169.854 97.8772 169.676 98.2741 169.543 98.6117C169.411 98.9448 169.274 99.3098 169.137 99.7067C168.891 100.446 168.786 101.043 168.818 101.509Z" fill="white"/>
<path d="M178.093 106.373L176.122 106.067C175.529 106.044 175.023 105.697 174.594 105.031C174.48 104.853 174.407 104.748 174.375 104.707C174.343 104.671 174.325 104.621 174.32 104.557C174.316 104.497 174.329 104.411 174.366 104.297C174.398 104.183 174.452 104.028 174.521 103.831C174.589 103.635 174.649 103.43 174.699 103.225C175.036 101.76 178.18 94.7658 184.125 82.2511C190.07 69.7318 193.19 63.276 193.482 62.8836C193.774 62.4913 193.989 62.1993 194.13 62.0213C194.272 61.8388 194.436 61.6837 194.618 61.5469C194.805 61.4145 194.942 61.3233 195.029 61.2777C195.116 61.232 195.294 61.1545 195.563 61.045C195.832 60.9355 196.11 60.8214 196.398 60.7028C196.685 60.5842 196.986 60.4291 197.301 60.2329C197.616 60.0413 197.83 59.9044 197.949 59.8268C198.068 59.7493 198.223 59.7036 198.414 59.6899C198.606 59.6763 198.793 59.7584 198.98 59.9318C199.163 60.1051 199.263 60.3332 199.281 60.6161L199.295 60.8305C199.217 61.2229 196.872 66.1914 192.26 75.736C187.647 85.2805 185.133 90.5045 184.722 91.4033C186.265 90.6779 188.5 88.9852 191.434 86.3208C194.363 83.6563 195.818 81.918 195.8 81.1059C195.782 80.2938 196.024 79.687 196.53 79.2901C197.036 78.8932 197.598 78.6742 198.214 78.6377C198.834 78.6012 199.372 78.7745 199.833 79.1623C200.294 79.5502 200.545 80.2163 200.581 81.1607C200.618 82.1051 200.166 83.3324 199.222 84.8471C198.277 86.3618 197.123 87.7808 195.759 89.1039C192.821 91.9326 190.339 93.8351 188.322 94.8114C190.238 99.1503 192.26 101.254 194.39 101.126C195.535 100.893 196.9 99.862 198.474 98.0371C199.062 97.371 199.632 96.7003 200.18 96.025C200.727 95.3498 201.065 94.9483 201.188 94.816C201.311 94.6883 201.499 94.6153 201.74 94.597C202.124 94.5742 202.379 94.8525 202.493 95.4365C202.612 96.0205 202.689 96.6273 202.726 97.2523C202.762 97.8819 202.73 98.3199 202.625 98.5709C202.105 99.7434 200.905 101.208 199.017 102.96C197.128 104.716 195.294 105.647 193.51 105.757C192.232 105.834 191.201 105.656 190.421 105.214C189.641 104.771 189.029 104.406 188.582 104.105C188.135 103.809 187.674 103.393 187.195 102.864C186.716 102.335 186.315 101.897 186 101.55C185.681 101.203 185.316 100.715 184.9 100.09C184.485 99.4651 184.189 99.018 184.011 98.7579C183.833 98.4933 183.564 98.0644 183.212 97.4622C182.861 96.8645 182.66 96.536 182.619 96.4767C182.3 97.2478 181.944 98.0873 181.552 98.9861C181.159 99.8848 180.803 100.72 180.484 101.495C180.165 102.266 179.873 102.974 179.608 103.612C179.343 104.251 179.124 104.776 178.956 105.196C178.787 105.611 178.696 105.834 178.677 105.852C178.55 106.181 178.353 106.354 178.093 106.373Z" fill="white"/>
<path d="M131.753 154.263C131.657 154.373 131.379 154.902 130.918 155.856C130.457 156.809 129.964 157.777 129.431 158.757C128.901 159.738 128.231 160.678 127.423 161.582C126.615 162.485 125.922 162.991 125.347 163.101C124.772 163.206 124.407 163.265 124.243 163.274C122.377 163.388 121.387 162.503 121.268 160.619C121.131 158.411 122.117 155.751 124.229 152.653C125.032 151.485 126.054 150.217 127.291 148.848C128.527 147.479 129.202 146.704 129.316 146.526C129.426 146.348 130.772 143.409 133.354 137.711C131.538 139.96 129.841 141.799 128.258 143.232C126.675 144.66 125.119 145.504 123.591 145.764L123.376 145.777C122.587 145.828 121.788 145.613 120.985 145.148C120.182 144.678 119.74 143.793 119.662 142.497C119.544 140.572 119.945 138.674 120.871 136.803C121.2 136.151 121.766 135.047 122.578 133.491C123.39 131.935 124.134 130.434 124.818 128.988C125.479 127.829 126.15 126.483 126.83 124.955C127.51 123.426 128.03 122.331 128.399 121.67C128.764 121.003 129.129 120.661 129.494 120.638C129.859 120.616 130.343 120.816 130.95 121.236C131.557 121.656 131.881 122.181 131.917 122.81C131.954 123.44 130.795 126.25 128.436 131.237C126.077 136.228 124.918 139.057 124.959 139.723C124.968 139.887 125.055 139.96 125.219 139.951C125.767 139.919 126.93 139.066 128.71 137.401C130.489 135.736 132.442 133.614 134.563 131.041C136.931 128.189 138.765 125.602 140.07 123.285C140.234 122.988 140.367 122.765 140.472 122.605C140.572 122.445 140.704 122.235 140.859 121.971C141.014 121.706 141.147 121.501 141.247 121.35C141.348 121.2 141.471 121.026 141.612 120.826C141.754 120.625 141.881 120.47 141.995 120.36C142.109 120.251 142.237 120.141 142.374 120.032C142.584 119.817 142.826 119.699 143.1 119.68C143.373 119.662 143.793 119.699 144.359 119.785C144.924 119.872 145.267 119.986 145.385 120.118C145.504 120.255 145.632 120.378 145.759 120.492C145.974 120.702 146.088 120.903 146.102 121.099C146.115 121.291 146.047 121.551 145.905 121.875C145.764 122.199 144.92 123.864 143.373 126.871C138.829 135.74 135.727 142.2 134.061 146.252C136.981 143.469 141.087 139.358 146.371 133.924C146.581 133.728 146.8 133.623 147.023 133.609C147.653 133.573 148.027 134.513 148.146 136.443C148.182 137.013 148.1 137.392 147.913 137.588C142.137 142.611 136.749 148.173 131.753 154.263Z" fill="white"/>
<path d="M165.442 118.787C166.049 118.75 166.692 118.983 167.362 119.494C168.033 120 168.407 120.817 168.476 121.944C168.544 123.071 168.238 124.554 167.559 126.397C166.879 128.24 165.907 130.134 164.639 132.073C163.375 134.012 161.965 135.85 160.414 137.584C158.863 139.318 157.161 140.769 155.309 141.927C153.456 143.091 151.75 143.72 150.19 143.816C148.629 143.912 147.347 143.497 146.343 142.571C145.34 141.645 144.783 140.303 144.678 138.551C144.569 136.799 144.879 134.828 145.613 132.647C146.343 130.467 147.338 128.514 148.597 126.798C149.856 125.083 151.234 123.527 152.735 122.131C155.874 119.27 158.694 117.765 161.19 117.61C162.303 117.541 163.165 117.765 163.763 118.276C163.977 118.445 164.087 118.604 164.096 118.746L164.105 118.928C164.388 118.873 164.835 118.823 165.442 118.787ZM162.618 123.021L162.403 123.034C161.691 123.08 161.308 122.583 161.244 121.547C159.793 122.126 158.297 123.071 156.746 124.389C155.199 125.708 153.839 127.236 152.662 128.975C150.272 132.46 149.127 135.348 149.227 137.643C149.295 138.779 149.747 139.322 150.577 139.272C151.408 139.222 152.612 138.597 154.186 137.401C155.76 136.206 157.293 134.545 158.781 132.415C160.268 130.289 161.367 128.455 162.075 126.917C162.782 125.375 163.119 124.339 163.088 123.801C163.06 123.263 162.905 123.002 162.618 123.021Z" fill="white"/>
<path d="M194.203 130.694C194.586 130.671 194.837 130.949 194.956 131.533C195.075 132.117 195.152 132.724 195.189 133.349C195.225 133.979 195.193 134.417 195.088 134.668C194.568 135.84 193.368 137.305 191.48 139.057C189.591 140.813 187.757 141.744 185.973 141.854C184.878 141.922 183.842 141.653 182.87 141.051C181.898 140.448 181.36 139.326 181.26 137.684C181.159 136.041 181.497 134.403 182.268 132.765C177.628 139.381 173.878 142.775 171.017 142.953C169.881 143.022 168.937 142.675 168.188 141.904C167.44 141.137 167.039 140.321 166.984 139.458C166.929 138.596 166.998 137.697 167.185 136.757C167.372 135.822 167.577 134.978 167.81 134.23C168.038 133.482 168.389 132.555 168.859 131.447C169.329 130.338 169.68 129.535 169.918 129.029C170.15 128.527 170.524 127.765 171.044 126.747C171.56 125.73 172.24 124.357 173.084 122.637C173.923 120.917 174.63 119.635 175.196 118.795C175.767 117.956 176.341 117.513 176.93 117.467C177.518 117.422 178.048 117.627 178.527 118.088C179.001 118.549 179.252 118.927 179.27 119.233C179.289 119.539 178.696 120.949 177.487 123.463C173.919 130.968 172.171 135.32 172.244 136.516C172.263 136.821 172.386 136.963 172.609 136.949C173.581 136.89 175.876 134.631 179.489 130.174C183.103 125.716 185.179 122.879 185.713 121.656C186.246 120.433 186.78 119.397 187.309 118.549C187.839 117.7 188.236 117.18 188.509 116.979C189.344 116.359 190.453 115.985 191.831 115.857C192.054 115.843 192.228 115.843 192.351 115.857C192.474 115.871 192.625 116.035 192.807 116.35C192.99 116.664 193.085 116.911 193.099 117.093C192.953 117.673 192.237 119.233 190.959 121.774C189.682 124.316 188.97 125.753 188.829 126.09C186.739 131.187 185.745 134.485 185.836 135.982C185.886 136.835 186.237 137.241 186.89 137.2C188.058 136.967 189.417 135.936 190.973 134.111C191.543 133.445 192.105 132.77 192.666 132.085C193.222 131.401 193.569 130.995 193.706 130.876C193.834 130.771 194.003 130.708 194.203 130.694Z" fill="white"/>
<path d="M196.347 140.225C196.27 138.938 196.735 137.738 197.744 136.63C198.756 135.521 199.851 134.928 201.038 134.855C202.224 134.782 202.853 135.334 202.926 136.511C202.999 137.688 202.53 138.888 201.517 140.111C200.504 141.334 199.409 141.981 198.232 142.054C197.055 142.123 196.425 141.511 196.347 140.225ZM223.389 92.4746L225.748 92.6343C226.254 92.6024 226.519 92.7484 226.537 93.0723C226.541 93.1316 226.51 93.2685 226.441 93.4738C220.724 103.087 214.396 114.374 207.461 127.341C207.078 128.075 206.69 128.518 206.289 128.664C206.266 128.664 206.248 128.677 206.23 128.696C206.211 128.718 206.175 128.746 206.129 128.778C206.079 128.81 206.015 128.842 205.938 128.864C205.641 129.006 205.29 129.088 204.884 129.111C204.478 129.134 204.199 129.216 204.044 129.344C203.889 129.476 203.579 129.553 203.113 129.585C202.365 129.631 201.964 129.271 201.918 128.499C201.836 127.14 203.36 123.563 206.494 117.76C209.629 111.961 212.722 106.559 215.77 101.558C218.822 96.558 220.788 93.6608 221.678 92.8761C221.924 92.6662 222.499 92.5294 223.389 92.4746Z" fill="white"/>
<g opacity="0.1">
<path d="M43.4292 157.899L42.6719 145.572L262.498 98.6562L265.537 147.999L43.4292 157.899Z" fill="white"/>
<path d="M42.1517 137.104L41.4263 125.365L259.606 51.6504L261.609 84.1759L42.1517 137.104Z" fill="white"/>
</g>
<path d="M55.4058 56.2044C54.7853 55.0592 54.7807 53.654 55.4058 52.5088C56.0308 53.6494 56.0263 55.0592 55.4058 56.2044ZM58.8778 57.6324C60.1188 57.2583 61.0997 56.2637 61.451 55.0181C60.21 55.3877 59.2337 56.3868 58.8778 57.6324ZM60.3378 61.1409C61.4647 61.7614 62.8517 61.7659 63.9786 61.1409C62.8517 60.5158 61.4647 60.5204 60.3378 61.1409ZM58.9325 64.6676C59.2884 65.9132 60.2648 66.9123 61.5057 67.2819C61.1544 66.0318 60.169 65.0418 58.9325 64.6676ZM55.4788 66.1504C54.8583 67.2956 54.8537 68.7008 55.4788 69.846C56.1038 68.7008 56.0993 67.2956 55.4788 66.1504ZM52.0068 64.7178C50.7658 65.0919 49.7849 66.0865 49.4336 67.3321C50.6746 66.9625 51.6509 65.9634 52.0068 64.7178ZM50.5468 61.2139C49.4199 60.5934 48.0329 60.5888 46.906 61.2139C48.0284 61.8389 49.4199 61.8344 50.5468 61.2139ZM51.952 57.6871C51.5962 56.4416 50.6198 55.4424 49.3788 55.0729C49.7301 56.3184 50.7156 57.313 51.952 57.6871ZM74.2212 152.928C73.6007 151.782 73.5962 150.377 74.2212 149.232C74.8463 150.373 74.8417 151.778 74.2212 152.928ZM77.6932 154.356C78.9342 153.982 79.9151 152.987 80.2664 151.741C79.0254 152.111 78.0491 153.11 77.6932 154.356ZM79.1532 157.86C80.2801 158.48 81.6671 158.485 82.794 157.86C81.6671 157.235 80.2801 157.239 79.1532 157.86ZM77.748 161.386C78.1038 162.632 79.0802 163.631 80.3212 164.001C79.9699 162.755 78.9844 161.76 77.748 161.386ZM74.2942 162.874C73.6737 164.019 73.6691 165.424 74.2942 166.569C74.9193 165.424 74.9147 164.019 74.2942 162.874ZM70.8222 161.441C69.5812 161.815 68.6003 162.81 68.249 164.055C69.49 163.686 70.4663 162.687 70.8222 161.441ZM69.3622 157.937C68.2353 157.317 66.8483 157.312 65.7214 157.937C66.8438 158.562 68.2353 158.558 69.3622 157.937ZM70.7675 154.41C70.4116 153.165 69.4352 152.166 68.1943 151.796C68.5456 153.042 69.531 154.036 70.7675 154.41ZM226.506 145.464C227.126 144.318 227.131 142.913 226.506 141.768C225.881 142.909 225.885 144.318 226.506 145.464ZM229.978 146.892C231.219 146.517 232.199 145.523 232.551 144.277C231.31 144.647 230.333 145.646 229.978 146.892ZM231.438 150.395C232.564 151.016 233.951 151.021 235.078 150.395C233.956 149.77 232.564 149.775 231.438 150.395ZM230.032 153.927C230.388 155.172 231.365 156.171 232.606 156.541C232.254 155.291 231.269 154.296 230.032 153.927ZM226.579 155.41C225.958 156.555 225.954 157.96 226.579 159.105C227.204 157.96 227.199 156.555 226.579 155.41ZM223.107 153.977C221.866 154.351 220.885 155.346 220.533 156.591C221.774 156.222 222.751 155.222 223.107 153.977ZM221.647 150.473C220.52 149.853 219.133 149.848 218.006 150.473C219.128 151.098 220.52 151.094 221.647 150.473ZM223.052 146.946C222.696 145.701 221.72 144.702 220.479 144.332C220.83 145.578 221.815 146.572 223.052 146.946ZM233.678 54.8904C234.289 54.3292 234.289 53.4121 233.678 52.851C233.062 53.4076 233.066 54.3246 233.678 54.8904ZM235.594 55.6797C236.42 55.7116 237.063 55.0637 237.013 54.2379C236.187 54.2014 235.548 54.8539 235.594 55.6797ZM236.401 57.6141C236.954 58.2209 237.861 58.2255 238.409 57.6141C237.857 56.9982 236.949 57.0028 236.401 57.6141ZM235.621 59.5623C235.58 60.3881 236.214 61.0405 237.04 61.004C237.09 60.1782 236.447 59.5304 235.621 59.5623ZM233.719 60.379C233.107 60.9401 233.107 61.8572 233.719 62.4184C234.33 61.8572 234.326 60.9401 233.719 60.379ZM231.798 59.5897C230.972 59.5577 230.329 60.2056 230.379 61.0314C231.205 61.0679 231.844 60.4155 231.798 59.5897ZM230.995 57.6552C230.443 57.0484 229.535 57.0438 228.988 57.6552C229.535 58.2666 230.443 58.262 230.995 57.6552ZM231.771 55.707C231.812 54.8813 231.178 54.2288 230.352 54.2653C230.302 55.0911 230.945 55.739 231.771 55.707ZM100.295 124.285C100.907 123.724 100.907 122.807 100.295 122.245C99.6841 122.807 99.6841 123.724 100.295 124.285ZM102.212 125.074C103.037 125.106 103.681 124.458 103.631 123.632C102.805 123.6 102.171 124.253 102.212 125.074ZM103.019 127.009C103.571 127.615 104.479 127.62 105.027 127.009C104.479 126.397 103.571 126.402 103.019 127.009ZM102.244 128.957C102.203 129.782 102.837 130.435 103.662 130.398C103.708 129.573 103.065 128.929 102.244 128.957ZM100.336 129.778C99.7251 130.339 99.7251 131.256 100.336 131.817C100.948 131.256 100.948 130.339 100.336 129.778ZM98.4203 128.989C97.5945 128.957 96.9512 129.605 97.0014 130.43C97.8272 130.462 98.4613 129.81 98.4203 128.989ZM97.6127 127.054C97.0607 126.447 96.1528 126.443 95.6053 127.054C96.1528 127.666 97.0607 127.661 97.6127 127.054ZM98.3883 125.106C98.4294 124.28 97.7952 123.628 96.9694 123.664C96.9238 124.49 97.5671 125.133 98.3883 125.106Z" fill="#FFB703"/>
<path opacity="0.8" d="M55.4058 56.2044C54.7853 55.0592 54.7807 53.654 55.4058 52.5088C56.0308 53.6494 56.0263 55.0592 55.4058 56.2044ZM58.8778 57.6324C60.1188 57.2583 61.0997 56.2637 61.451 55.0181C60.21 55.3877 59.2337 56.3868 58.8778 57.6324ZM60.3378 61.1409C61.4647 61.7614 62.8517 61.7659 63.9786 61.1409C62.8517 60.5158 61.4647 60.5204 60.3378 61.1409ZM58.9325 64.6676C59.2884 65.9132 60.2648 66.9123 61.5057 67.2819C61.1544 66.0318 60.169 65.0418 58.9325 64.6676ZM55.4788 66.1504C54.8583 67.2956 54.8537 68.7008 55.4788 69.846C56.1038 68.7008 56.0993 67.2956 55.4788 66.1504ZM52.0068 64.7178C50.7658 65.0919 49.7849 66.0865 49.4336 67.3321C50.6746 66.9625 51.6509 65.9634 52.0068 64.7178ZM50.5468 61.2139C49.4199 60.5934 48.0329 60.5888 46.906 61.2139C48.0284 61.8389 49.4199 61.8344 50.5468 61.2139ZM51.952 57.6871C51.5962 56.4416 50.6198 55.4424 49.3788 55.0729C49.7301 56.3184 50.7156 57.313 51.952 57.6871ZM74.2212 152.928C73.6007 151.782 73.5962 150.377 74.2212 149.232C74.8463 150.373 74.8417 151.778 74.2212 152.928ZM77.6932 154.356C78.9342 153.982 79.9151 152.987 80.2664 151.741C79.0254 152.111 78.0491 153.11 77.6932 154.356ZM79.1532 157.86C80.2801 158.48 81.6671 158.485 82.794 157.86C81.6671 157.235 80.2801 157.239 79.1532 157.86ZM77.748 161.386C78.1038 162.632 79.0802 163.631 80.3212 164.001C79.9699 162.755 78.9844 161.76 77.748 161.386ZM74.2942 162.874C73.6737 164.019 73.6691 165.424 74.2942 166.569C74.9193 165.424 74.9147 164.019 74.2942 162.874ZM70.8222 161.441C69.5812 161.815 68.6003 162.81 68.249 164.055C69.49 163.686 70.4663 162.687 70.8222 161.441ZM69.3622 157.937C68.2353 157.317 66.8483 157.312 65.7214 157.937C66.8438 158.562 68.2353 158.558 69.3622 157.937ZM70.7675 154.41C70.4116 153.165 69.4352 152.166 68.1943 151.796C68.5456 153.042 69.531 154.036 70.7675 154.41ZM226.506 145.464C227.126 144.318 227.131 142.913 226.506 141.768C225.881 142.909 225.885 144.318 226.506 145.464ZM229.978 146.892C231.219 146.517 232.199 145.523 232.551 144.277C231.31 144.647 230.333 145.646 229.978 146.892ZM231.438 150.395C232.564 151.016 233.951 151.021 235.078 150.395C233.956 149.77 232.564 149.775 231.438 150.395ZM230.032 153.927C230.388 155.172 231.365 156.171 232.606 156.541C232.254 155.291 231.269 154.296 230.032 153.927ZM226.579 155.41C225.958 156.555 225.954 157.96 226.579 159.105C227.204 157.96 227.199 156.555 226.579 155.41ZM223.107 153.977C221.866 154.351 220.885 155.346 220.533 156.591C221.774 156.222 222.751 155.222 223.107 153.977ZM221.647 150.473C220.52 149.853 219.133 149.848 218.006 150.473C219.128 151.098 220.52 151.094 221.647 150.473ZM223.052 146.946C222.696 145.701 221.72 144.702 220.479 144.332C220.83 145.578 221.815 146.572 223.052 146.946ZM233.678 54.8904C234.289 54.3292 234.289 53.4121 233.678 52.851C233.062 53.4076 233.066 54.3246 233.678 54.8904ZM235.594 55.6797C236.42 55.7116 237.063 55.0637 237.013 54.2379C236.187 54.2014 235.548 54.8539 235.594 55.6797ZM236.401 57.6141C236.954 58.2209 237.861 58.2255 238.409 57.6141C237.857 56.9982 236.949 57.0028 236.401 57.6141ZM235.621 59.5623C235.58 60.3881 236.214 61.0405 237.04 61.004C237.09 60.1782 236.447 59.5304 235.621 59.5623ZM233.719 60.379C233.107 60.9401 233.107 61.8572 233.719 62.4184C234.33 61.8572 234.326 60.9401 233.719 60.379ZM231.798 59.5897C230.972 59.5577 230.329 60.2056 230.379 61.0314C231.205 61.0679 231.844 60.4155 231.798 59.5897ZM230.995 57.6552C230.443 57.0484 229.535 57.0438 228.988 57.6552C229.535 58.2666 230.443 58.262 230.995 57.6552ZM231.771 55.707C231.812 54.8813 231.178 54.2288 230.352 54.2653C230.302 55.0911 230.945 55.739 231.771 55.707ZM100.295 124.285C100.907 123.724 100.907 122.807 100.295 122.245C99.6841 122.807 99.6841 123.724 100.295 124.285ZM102.212 125.074C103.037 125.106 103.681 124.458 103.631 123.632C102.805 123.6 102.171 124.253 102.212 125.074ZM103.019 127.009C103.571 127.615 104.479 127.62 105.027 127.009C104.479 126.397 103.571 126.402 103.019 127.009ZM102.244 128.957C102.203 129.782 102.837 130.435 103.662 130.398C103.708 129.573 103.065 128.929 102.244 128.957ZM100.336 129.778C99.7251 130.339 99.7251 131.256 100.336 131.817C100.948 131.256 100.948 130.339 100.336 129.778ZM98.4203 128.989C97.5945 128.957 96.9512 129.605 97.0014 130.43C97.8272 130.462 98.4613 129.81 98.4203 128.989ZM97.6127 127.054C97.0607 126.447 96.1528 126.443 95.6053 127.054C96.1528 127.666 97.0607 127.661 97.6127 127.054ZM98.3883 125.106C98.4294 124.28 97.7952 123.628 96.9694 123.664C96.9238 124.49 97.5671 125.133 98.3883 125.106Z" fill="white"/>
</svg>
