<svg width="42" height="42" viewBox="0 0 42 42" fill="none" xmlns="http://www.w3.org/2000/svg">
<rect width="42" height="42" rx="6" fill="#67DF87"/>
<path d="M10.2733 11.5652C11.5709 13.1561 13.1914 14.4535 15.0277 15.3716C16.8639 16.2898 18.8741 16.8077 20.9254 16.8913C20.6485 15.7622 20.6272 12.6943 22.7789 11.4161C23.6536 10.8411 24.6724 10.5236 25.7189 10.5C26.4018 10.5015 27.077 10.6443 27.7021 10.9193C28.3272 11.1942 28.8887 11.5955 29.3513 12.0978C30.4725 11.8592 31.5503 11.4496 32.547 10.8835C32.1971 12.0267 31.4387 13.0011 30.4165 13.6211C31.392 13.5367 32.3482 13.2994 33.25 12.918C32.5712 13.9294 31.7118 14.8069 30.7148 15.5065C31.4711 22.292 25.3887 30.7285 16.7391 30.7285C13.9337 30.7438 11.1753 30.0082 8.75 28.598C10.0723 28.7627 11.4142 28.6588 12.6954 28.2928C13.9766 27.9267 15.1708 27.3059 16.2065 26.4676C15.0606 26.4002 13.9559 26.0159 13.0156 25.3576C12.0752 24.6994 11.336 23.7929 10.8804 22.7393C11.9457 23.0802 12.9576 23.2507 13.5435 22.7393C12.3467 22.4348 11.2794 21.7539 10.4988 20.7969C9.71826 19.8399 9.26578 18.6575 9.20804 17.4239C9.55997 17.768 9.97637 18.0392 10.4334 18.222C10.8904 18.4048 11.3789 18.4956 11.8711 18.4891C10.7992 17.734 10.0435 16.6101 9.74872 15.3326C9.4539 14.055 9.64067 12.7136 10.2733 11.5652V11.5652Z" stroke="#333333" stroke-linecap="round" stroke-linejoin="round"/>
</svg>
